<svg xmlns="http://www.w3.org/2000/svg" xmlns:xlink="http://www.w3.org/1999/xlink" width="180" zoomAndPan="magnify" viewBox="0 0 135 30.750001" height="41" preserveAspectRatio="xMidYMid meet" version="1.0"><defs><g/><clipPath id="f004e50152"><path d="M 0.886719 0.511719 L 30.367188 0.511719 L 30.367188 29.992188 L 0.886719 29.992188 Z M 0.886719 0.511719 " clip-rule="nonzero"/></clipPath><clipPath id="b08ddef444"><path d="M 15.628906 0.511719 C 7.488281 0.511719 0.886719 7.109375 0.886719 15.25 C 0.886719 23.390625 7.488281 29.992188 15.628906 29.992188 C 23.769531 29.992188 30.367188 23.390625 30.367188 15.25 C 30.367188 7.109375 23.769531 0.511719 15.628906 0.511719 Z M 15.628906 0.511719 " clip-rule="nonzero"/></clipPath></defs><g clip-path="url(#f004e50152)"><g clip-path="url(#b08ddef444)"><path stroke-linecap="butt" transform="matrix(0.743952, 0, 0, 0.743952, 0.88843, 0.511469)" fill="none" stroke-linejoin="miter" d="M 19.813756 0.000336093 C 8.871344 0.000336093 -0.00230082 8.86873 -0.00230082 19.811143 C -0.00230082 30.753555 8.871344 39.6272 19.813756 39.6272 C 30.756168 39.6272 39.624563 30.753555 39.624563 19.811143 C 39.624563 8.86873 30.756168 0.000336093 19.813756 0.000336093 Z M 19.813756 0.000336093 " stroke="#000000" stroke-width="1" stroke-opacity="1" stroke-miterlimit="4"/></g></g><g fill="#000000" fill-opacity="1"><g transform="translate(8.188455, 16.366937)"><g><path d="M 5.546875 -0.609375 C 5.140625 -0.503906 4.738281 -0.425781 4.34375 -0.375 C 3.957031 -0.332031 3.519531 -0.3125 3.03125 -0.3125 C 3.03125 -1.613281 2.988281 -3.015625 2.90625 -4.515625 C 2.832031 -6.015625 2.734375 -7.3125 2.609375 -8.40625 C 2.484375 -8.394531 2.25 -8.375 1.90625 -8.34375 C 1.570312 -8.3125 1.117188 -8.269531 0.546875 -8.21875 C 0.421875 -8.539062 0.328125 -8.867188 0.265625 -9.203125 C 0.203125 -9.546875 0.171875 -9.882812 0.171875 -10.21875 C 1.429688 -10.5 2.632812 -10.703125 3.78125 -10.828125 C 4.9375 -10.953125 6.242188 -11.015625 7.703125 -11.015625 C 7.742188 -10.859375 7.773438 -10.679688 7.796875 -10.484375 C 7.828125 -10.285156 7.84375 -10.066406 7.84375 -9.828125 C 7.84375 -9.660156 7.828125 -9.476562 7.796875 -9.28125 C 7.773438 -9.082031 7.738281 -8.867188 7.6875 -8.640625 C 7.332031 -8.640625 6.988281 -8.632812 6.65625 -8.625 C 6.320312 -8.625 5.992188 -8.617188 5.671875 -8.609375 C 5.710938 -8.035156 5.738281 -7.4375 5.75 -6.8125 C 5.769531 -6.195312 5.78125 -5.554688 5.78125 -4.890625 C 5.78125 -4.285156 5.757812 -3.628906 5.71875 -2.921875 C 5.6875 -2.210938 5.628906 -1.441406 5.546875 -0.609375 Z M 5.546875 -0.609375 "/></g></g></g><g fill="#000000" fill-opacity="1"><g transform="translate(15.66517, 16.366937)"><g><path d="M 7.140625 -1.125 C 7.210938 -0.882812 7.285156 -0.539062 7.359375 -0.09375 C 7.429688 0.34375 7.46875 0.710938 7.46875 1.015625 C 6.550781 1.015625 5.671875 1.046875 4.828125 1.109375 C 3.992188 1.171875 2.953125 1.289062 1.703125 1.46875 C 1.484375 0.09375 1.285156 -1.648438 1.109375 -3.765625 C 0.941406 -5.878906 0.859375 -7.640625 0.859375 -9.046875 C 1.285156 -9.160156 1.703125 -9.242188 2.109375 -9.296875 C 2.523438 -9.347656 2.9375 -9.375 3.34375 -9.375 C 3.46875 -9.375 3.585938 -9.367188 3.703125 -9.359375 C 3.816406 -9.359375 3.9375 -9.351562 4.0625 -9.34375 C 3.988281 -8.875 3.925781 -8.253906 3.875 -7.484375 C 3.832031 -6.710938 3.8125 -5.890625 3.8125 -5.015625 C 3.8125 -3.765625 3.828125 -2.832031 3.859375 -2.21875 C 3.890625 -1.601562 3.945312 -1.082031 4.03125 -0.65625 C 4.539062 -0.800781 5.070312 -0.914062 5.625 -1 C 6.175781 -1.082031 6.679688 -1.125 7.140625 -1.125 Z M 7.140625 -1.125 "/></g></g></g><g fill="#000000" fill-opacity="1"><g transform="translate(5.960739, 22.797984)"><g><path d="M 1.734375 -0.9375 C 1.835938 -0.945312 1.953125 -0.9375 2.078125 -0.90625 C 2.203125 -0.882812 2.289062 -0.859375 2.34375 -0.828125 C 2.320312 -0.515625 2.207031 -0.273438 2 -0.109375 C 1.800781 0.0546875 1.53125 0.140625 1.1875 0.140625 C 0.851562 0.140625 0.59375 0.0390625 0.40625 -0.15625 C 0.226562 -0.363281 0.140625 -0.65625 0.140625 -1.03125 C 0.140625 -1.519531 0.269531 -1.925781 0.53125 -2.25 C 0.800781 -2.582031 1.132812 -2.75 1.53125 -2.75 C 1.78125 -2.75 1.976562 -2.671875 2.125 -2.515625 C 2.28125 -2.367188 2.367188 -2.160156 2.390625 -1.890625 C 2.253906 -1.828125 2.132812 -1.785156 2.03125 -1.765625 C 1.925781 -1.742188 1.800781 -1.734375 1.65625 -1.734375 C 1.65625 -1.910156 1.628906 -2.046875 1.578125 -2.140625 C 1.535156 -2.234375 1.476562 -2.28125 1.40625 -2.28125 C 1.289062 -2.28125 1.195312 -2.175781 1.125 -1.96875 C 1.050781 -1.757812 1.015625 -1.515625 1.015625 -1.234375 C 1.015625 -0.953125 1.046875 -0.734375 1.109375 -0.578125 C 1.179688 -0.429688 1.28125 -0.359375 1.40625 -0.359375 C 1.53125 -0.359375 1.617188 -0.40625 1.671875 -0.5 C 1.734375 -0.601562 1.753906 -0.75 1.734375 -0.9375 Z M 1.734375 -0.9375 "/></g></g></g><g fill="#000000" fill-opacity="1"><g transform="translate(8.412818, 22.797984)"><g><path d="M 0.09375 -0.921875 C 0.09375 -1.296875 0.203125 -1.597656 0.421875 -1.828125 C 0.640625 -2.066406 0.921875 -2.1875 1.265625 -2.1875 C 1.523438 -2.1875 1.722656 -2.113281 1.859375 -1.96875 C 2.003906 -1.832031 2.078125 -1.628906 2.078125 -1.359375 C 2.078125 -1.191406 2.050781 -1.019531 2 -0.84375 C 1.945312 -0.675781 1.875 -0.53125 1.78125 -0.40625 C 1.675781 -0.257812 1.550781 -0.144531 1.40625 -0.0625 C 1.257812 0.0078125 1.09375 0.046875 0.90625 0.046875 C 0.65625 0.046875 0.457031 -0.0390625 0.3125 -0.21875 C 0.164062 -0.394531 0.09375 -0.628906 0.09375 -0.921875 Z M 1.296875 -1.140625 C 1.296875 -1.347656 1.273438 -1.5 1.234375 -1.59375 C 1.203125 -1.6875 1.15625 -1.734375 1.09375 -1.734375 C 1.03125 -1.734375 0.976562 -1.664062 0.9375 -1.53125 C 0.894531 -1.40625 0.875 -1.238281 0.875 -1.03125 C 0.875 -0.863281 0.890625 -0.71875 0.921875 -0.59375 C 0.960938 -0.476562 1.015625 -0.421875 1.078125 -0.421875 C 1.140625 -0.421875 1.191406 -0.484375 1.234375 -0.609375 C 1.273438 -0.742188 1.296875 -0.921875 1.296875 -1.140625 Z M 1.296875 -1.140625 "/></g></g></g><g fill="#000000" fill-opacity="1"><g transform="translate(10.610959, 22.797984)"><g><path d="M 3.265625 -1.546875 C 3.265625 -1.296875 3.238281 -1.003906 3.1875 -0.671875 C 3.132812 -0.335938 3.082031 -0.0546875 3.03125 0.171875 C 2.875 0.171875 2.726562 0.160156 2.59375 0.140625 C 2.46875 0.128906 2.34375 0.113281 2.21875 0.09375 C 2.3125 -0.320312 2.375 -0.65625 2.40625 -0.90625 C 2.445312 -1.15625 2.46875 -1.363281 2.46875 -1.53125 C 2.46875 -1.601562 2.457031 -1.65625 2.4375 -1.6875 C 2.414062 -1.726562 2.382812 -1.75 2.34375 -1.75 C 2.300781 -1.75 2.257812 -1.71875 2.21875 -1.65625 C 2.175781 -1.59375 2.140625 -1.503906 2.109375 -1.390625 L 2.109375 -1.359375 C 2.109375 -1.148438 2.085938 -0.910156 2.046875 -0.640625 C 2.015625 -0.378906 1.976562 -0.179688 1.9375 -0.046875 C 1.84375 -0.046875 1.734375 -0.0507812 1.609375 -0.0625 C 1.492188 -0.0703125 1.359375 -0.0859375 1.203125 -0.109375 C 1.253906 -0.410156 1.289062 -0.648438 1.3125 -0.828125 C 1.332031 -1.015625 1.34375 -1.171875 1.34375 -1.296875 C 1.34375 -1.367188 1.332031 -1.421875 1.3125 -1.453125 C 1.289062 -1.492188 1.257812 -1.515625 1.21875 -1.515625 C 1.164062 -1.515625 1.117188 -1.484375 1.078125 -1.421875 C 1.035156 -1.359375 1 -1.273438 0.96875 -1.171875 C 0.957031 -0.953125 0.953125 -0.785156 0.953125 -0.671875 C 0.953125 -0.566406 0.953125 -0.472656 0.953125 -0.390625 C 0.953125 -0.367188 0.953125 -0.320312 0.953125 -0.25 C 0.953125 -0.1875 0.953125 -0.132812 0.953125 -0.09375 C 0.878906 -0.0703125 0.78125 -0.0507812 0.65625 -0.03125 C 0.53125 -0.0195312 0.410156 -0.015625 0.296875 -0.015625 C 0.242188 -0.378906 0.203125 -0.765625 0.171875 -1.171875 C 0.140625 -1.578125 0.125 -1.90625 0.125 -2.15625 C 0.175781 -2.1875 0.257812 -2.210938 0.375 -2.234375 C 0.488281 -2.253906 0.601562 -2.265625 0.71875 -2.265625 C 0.769531 -2.265625 0.820312 -2.257812 0.875 -2.25 C 0.925781 -2.25 0.976562 -2.242188 1.03125 -2.234375 C 1.019531 -2.160156 1.007812 -2.082031 1 -2 C 0.988281 -1.914062 0.984375 -1.832031 0.984375 -1.75 C 1.054688 -1.863281 1.144531 -1.953125 1.25 -2.015625 C 1.363281 -2.078125 1.484375 -2.109375 1.609375 -2.109375 C 1.703125 -2.109375 1.78125 -2.085938 1.84375 -2.046875 C 1.90625 -2.015625 1.957031 -1.957031 2 -1.875 C 2.082031 -2.03125 2.1875 -2.144531 2.3125 -2.21875 C 2.4375 -2.300781 2.578125 -2.34375 2.734375 -2.34375 C 2.910156 -2.34375 3.039062 -2.273438 3.125 -2.140625 C 3.21875 -2.003906 3.265625 -1.804688 3.265625 -1.546875 Z M 3.265625 -1.546875 "/></g></g></g><g fill="#000000" fill-opacity="1"><g transform="translate(14.070855, 22.797984)"><g><path d="M 0.953125 -1.375 C 0.992188 -1.363281 1.023438 -1.351562 1.046875 -1.34375 C 1.078125 -1.34375 1.101562 -1.34375 1.125 -1.34375 C 1.144531 -1.34375 1.171875 -1.34375 1.203125 -1.34375 C 1.234375 -1.351562 1.253906 -1.359375 1.265625 -1.359375 C 1.273438 -1.421875 1.285156 -1.476562 1.296875 -1.53125 C 1.304688 -1.59375 1.3125 -1.644531 1.3125 -1.6875 C 1.3125 -1.738281 1.300781 -1.773438 1.28125 -1.796875 C 1.269531 -1.828125 1.25 -1.84375 1.21875 -1.84375 C 1.164062 -1.84375 1.113281 -1.800781 1.0625 -1.71875 C 1.019531 -1.632812 0.984375 -1.519531 0.953125 -1.375 Z M 1.4375 -0.765625 C 1.539062 -0.742188 1.644531 -0.707031 1.75 -0.65625 C 1.851562 -0.601562 1.9375 -0.539062 2 -0.46875 C 1.976562 -0.394531 1.929688 -0.316406 1.859375 -0.234375 C 1.785156 -0.160156 1.691406 -0.0976562 1.578125 -0.046875 C 1.492188 -0.00390625 1.398438 0.0234375 1.296875 0.046875 C 1.203125 0.0664062 1.101562 0.078125 1 0.078125 C 0.71875 0.078125 0.5 0 0.34375 -0.15625 C 0.195312 -0.3125 0.125 -0.53125 0.125 -0.8125 C 0.125 -0.976562 0.148438 -1.144531 0.203125 -1.3125 C 0.253906 -1.476562 0.332031 -1.628906 0.4375 -1.765625 C 0.550781 -1.921875 0.679688 -2.039062 0.828125 -2.125 C 0.972656 -2.207031 1.125 -2.25 1.28125 -2.25 C 1.5 -2.25 1.675781 -2.191406 1.8125 -2.078125 C 1.945312 -1.960938 2.015625 -1.8125 2.015625 -1.625 C 2.015625 -1.539062 2.003906 -1.445312 1.984375 -1.34375 C 1.960938 -1.238281 1.941406 -1.148438 1.921875 -1.078125 C 1.835938 -1.046875 1.734375 -1.019531 1.609375 -1 C 1.492188 -0.976562 1.351562 -0.96875 1.1875 -0.96875 C 1.132812 -0.96875 1.082031 -0.96875 1.03125 -0.96875 C 0.988281 -0.976562 0.945312 -0.984375 0.90625 -0.984375 C 0.90625 -0.972656 0.90625 -0.957031 0.90625 -0.9375 C 0.90625 -0.914062 0.90625 -0.882812 0.90625 -0.84375 C 0.90625 -0.6875 0.925781 -0.566406 0.96875 -0.484375 C 1.007812 -0.398438 1.066406 -0.359375 1.140625 -0.359375 C 1.191406 -0.359375 1.242188 -0.398438 1.296875 -0.484375 C 1.359375 -0.566406 1.40625 -0.660156 1.4375 -0.765625 Z M 1.4375 -0.765625 "/></g></g></g><g fill="#000000" fill-opacity="1"><g transform="translate(16.233286, 22.797984)"><g><path d="M 1.21875 -1.328125 C 1.457031 -1.191406 1.613281 -1.066406 1.6875 -0.953125 C 1.769531 -0.835938 1.8125 -0.707031 1.8125 -0.5625 C 1.8125 -0.351562 1.71875 -0.175781 1.53125 -0.03125 C 1.351562 0.101562 1.128906 0.171875 0.859375 0.171875 C 0.628906 0.171875 0.4375 0.101562 0.28125 -0.03125 C 0.132812 -0.164062 0.0625 -0.328125 0.0625 -0.515625 C 0.125 -0.546875 0.203125 -0.570312 0.296875 -0.59375 C 0.398438 -0.613281 0.492188 -0.625 0.578125 -0.625 C 0.578125 -0.5 0.597656 -0.398438 0.640625 -0.328125 C 0.691406 -0.265625 0.765625 -0.234375 0.859375 -0.234375 C 0.921875 -0.234375 0.96875 -0.242188 1 -0.265625 C 1.039062 -0.296875 1.0625 -0.34375 1.0625 -0.40625 C 1.0625 -0.457031 1.035156 -0.507812 0.984375 -0.5625 C 0.941406 -0.613281 0.847656 -0.6875 0.703125 -0.78125 C 0.472656 -0.914062 0.320312 -1.035156 0.25 -1.140625 C 0.175781 -1.253906 0.140625 -1.378906 0.140625 -1.515625 C 0.140625 -1.722656 0.21875 -1.894531 0.375 -2.03125 C 0.539062 -2.175781 0.753906 -2.25 1.015625 -2.25 C 1.265625 -2.25 1.46875 -2.191406 1.625 -2.078125 C 1.78125 -1.972656 1.878906 -1.816406 1.921875 -1.609375 C 1.847656 -1.566406 1.757812 -1.53125 1.65625 -1.5 C 1.5625 -1.46875 1.4375 -1.445312 1.28125 -1.4375 C 1.257812 -1.5625 1.226562 -1.648438 1.1875 -1.703125 C 1.144531 -1.765625 1.09375 -1.796875 1.03125 -1.796875 C 0.988281 -1.796875 0.953125 -1.78125 0.921875 -1.75 C 0.898438 -1.726562 0.890625 -1.695312 0.890625 -1.65625 C 0.890625 -1.613281 0.910156 -1.566406 0.953125 -1.515625 C 0.992188 -1.472656 1.082031 -1.410156 1.21875 -1.328125 Z M 1.21875 -1.328125 "/></g></g></g><g fill="#000000" fill-opacity="1"><g transform="translate(18.2132, 22.797984)"><g><path d="M 1.21875 -0.921875 C 1.3125 -0.910156 1.40625 -0.882812 1.5 -0.84375 C 1.59375 -0.8125 1.675781 -0.765625 1.75 -0.703125 C 1.75 -0.515625 1.6875 -0.351562 1.5625 -0.21875 C 1.445312 -0.09375 1.285156 -0.03125 1.078125 -0.03125 C 0.804688 -0.03125 0.597656 -0.125 0.453125 -0.3125 C 0.304688 -0.5 0.234375 -0.769531 0.234375 -1.125 C 0.234375 -1.21875 0.234375 -1.304688 0.234375 -1.390625 C 0.242188 -1.484375 0.253906 -1.582031 0.265625 -1.6875 C 0.203125 -1.6875 0.144531 -1.691406 0.09375 -1.703125 C 0.0507812 -1.710938 0.015625 -1.726562 -0.015625 -1.75 C -0.015625 -1.832031 -0.0078125 -1.910156 0 -1.984375 C 0.0195312 -2.054688 0.046875 -2.113281 0.078125 -2.15625 C 0.0976562 -2.15625 0.125 -2.148438 0.15625 -2.140625 C 0.195312 -2.128906 0.25 -2.117188 0.3125 -2.109375 C 0.320312 -2.222656 0.335938 -2.316406 0.359375 -2.390625 C 0.378906 -2.472656 0.394531 -2.546875 0.40625 -2.609375 C 0.570312 -2.609375 0.726562 -2.597656 0.875 -2.578125 C 1.019531 -2.554688 1.140625 -2.53125 1.234375 -2.5 C 1.222656 -2.4375 1.207031 -2.363281 1.1875 -2.28125 C 1.164062 -2.207031 1.148438 -2.128906 1.140625 -2.046875 C 1.253906 -2.046875 1.359375 -2.046875 1.453125 -2.046875 C 1.554688 -2.054688 1.644531 -2.066406 1.71875 -2.078125 C 1.71875 -2.015625 1.710938 -1.941406 1.703125 -1.859375 C 1.691406 -1.785156 1.675781 -1.71875 1.65625 -1.65625 C 1.582031 -1.644531 1.492188 -1.632812 1.390625 -1.625 C 1.296875 -1.625 1.191406 -1.625 1.078125 -1.625 C 1.054688 -1.519531 1.039062 -1.414062 1.03125 -1.3125 C 1.03125 -1.21875 1.03125 -1.125 1.03125 -1.03125 C 1.03125 -0.8125 1.035156 -0.660156 1.046875 -0.578125 C 1.066406 -0.503906 1.09375 -0.46875 1.125 -0.46875 C 1.15625 -0.46875 1.175781 -0.503906 1.1875 -0.578125 C 1.207031 -0.660156 1.21875 -0.773438 1.21875 -0.921875 Z M 1.21875 -0.921875 "/></g></g></g><g fill="#000000" fill-opacity="1"><g transform="translate(20.038372, 22.797984)"><g><path d="M 0.8125 -3 C 0.894531 -3 0.96875 -2.988281 1.03125 -2.96875 C 1.101562 -2.957031 1.160156 -2.941406 1.203125 -2.921875 C 1.179688 -2.867188 1.15625 -2.785156 1.125 -2.671875 C 1.101562 -2.566406 1.082031 -2.472656 1.0625 -2.390625 C 0.976562 -2.378906 0.878906 -2.367188 0.765625 -2.359375 C 0.648438 -2.359375 0.523438 -2.359375 0.390625 -2.359375 C 0.367188 -2.410156 0.351562 -2.46875 0.34375 -2.53125 C 0.332031 -2.59375 0.328125 -2.648438 0.328125 -2.703125 C 0.328125 -2.742188 0.328125 -2.78125 0.328125 -2.8125 C 0.335938 -2.84375 0.347656 -2.875 0.359375 -2.90625 C 0.421875 -2.9375 0.488281 -2.957031 0.5625 -2.96875 C 0.632812 -2.988281 0.71875 -3 0.8125 -3 Z M 0.265625 -2 C 0.335938 -2.039062 0.421875 -2.070312 0.515625 -2.09375 C 0.609375 -2.113281 0.710938 -2.125 0.828125 -2.125 C 0.878906 -2.125 0.929688 -2.117188 0.984375 -2.109375 C 1.035156 -2.109375 1.082031 -2.101562 1.125 -2.09375 C 1.070312 -1.925781 1.019531 -1.65625 0.96875 -1.28125 C 0.925781 -0.90625 0.898438 -0.492188 0.890625 -0.046875 C 0.828125 -0.015625 0.753906 0.00390625 0.671875 0.015625 C 0.585938 0.0351562 0.5 0.046875 0.40625 0.046875 C 0.363281 0.046875 0.328125 0.046875 0.296875 0.046875 C 0.265625 0.046875 0.238281 0.0390625 0.21875 0.03125 C 0.1875 -0.34375 0.171875 -0.703125 0.171875 -1.046875 C 0.179688 -1.398438 0.210938 -1.71875 0.265625 -2 Z M 0.265625 -2 "/></g></g></g><g fill="#000000" fill-opacity="1"><g transform="translate(21.244573, 22.797984)"><g><path d="M 2.03125 -1.46875 C 1.945312 -1.4375 1.847656 -1.410156 1.734375 -1.390625 C 1.628906 -1.367188 1.5 -1.359375 1.34375 -1.359375 C 1.34375 -1.492188 1.328125 -1.59375 1.296875 -1.65625 C 1.273438 -1.726562 1.238281 -1.765625 1.1875 -1.765625 C 1.113281 -1.765625 1.046875 -1.664062 0.984375 -1.46875 C 0.921875 -1.28125 0.890625 -1.066406 0.890625 -0.828125 C 0.890625 -0.679688 0.910156 -0.5625 0.953125 -0.46875 C 0.992188 -0.382812 1.050781 -0.34375 1.125 -0.34375 C 1.1875 -0.34375 1.25 -0.367188 1.3125 -0.421875 C 1.382812 -0.472656 1.472656 -0.570312 1.578125 -0.71875 C 1.648438 -0.707031 1.722656 -0.675781 1.796875 -0.625 C 1.867188 -0.582031 1.929688 -0.523438 1.984375 -0.453125 C 1.960938 -0.378906 1.910156 -0.300781 1.828125 -0.21875 C 1.753906 -0.144531 1.664062 -0.0820312 1.5625 -0.03125 C 1.476562 0.0078125 1.382812 0.0390625 1.28125 0.0625 C 1.1875 0.0820312 1.082031 0.09375 0.96875 0.09375 C 0.695312 0.09375 0.484375 0.015625 0.328125 -0.140625 C 0.171875 -0.304688 0.09375 -0.53125 0.09375 -0.8125 C 0.09375 -0.96875 0.117188 -1.125 0.171875 -1.28125 C 0.234375 -1.445312 0.3125 -1.59375 0.40625 -1.71875 C 0.507812 -1.863281 0.628906 -1.972656 0.765625 -2.046875 C 0.910156 -2.117188 1.070312 -2.15625 1.25 -2.15625 C 1.488281 -2.15625 1.675781 -2.09375 1.8125 -1.96875 C 1.957031 -1.851562 2.03125 -1.6875 2.03125 -1.46875 Z M 2.03125 -1.46875 "/></g></g></g><g fill="#000000" fill-opacity="1"><g transform="translate(23.31178, 22.797984)"><g><path d="M 1.21875 -1.328125 C 1.457031 -1.191406 1.613281 -1.066406 1.6875 -0.953125 C 1.769531 -0.835938 1.8125 -0.707031 1.8125 -0.5625 C 1.8125 -0.351562 1.71875 -0.175781 1.53125 -0.03125 C 1.351562 0.101562 1.128906 0.171875 0.859375 0.171875 C 0.628906 0.171875 0.4375 0.101562 0.28125 -0.03125 C 0.132812 -0.164062 0.0625 -0.328125 0.0625 -0.515625 C 0.125 -0.546875 0.203125 -0.570312 0.296875 -0.59375 C 0.398438 -0.613281 0.492188 -0.625 0.578125 -0.625 C 0.578125 -0.5 0.597656 -0.398438 0.640625 -0.328125 C 0.691406 -0.265625 0.765625 -0.234375 0.859375 -0.234375 C 0.921875 -0.234375 0.96875 -0.242188 1 -0.265625 C 1.039062 -0.296875 1.0625 -0.34375 1.0625 -0.40625 C 1.0625 -0.457031 1.035156 -0.507812 0.984375 -0.5625 C 0.941406 -0.613281 0.847656 -0.6875 0.703125 -0.78125 C 0.472656 -0.914062 0.320312 -1.035156 0.25 -1.140625 C 0.175781 -1.253906 0.140625 -1.378906 0.140625 -1.515625 C 0.140625 -1.722656 0.21875 -1.894531 0.375 -2.03125 C 0.539062 -2.175781 0.753906 -2.25 1.015625 -2.25 C 1.265625 -2.25 1.46875 -2.191406 1.625 -2.078125 C 1.78125 -1.972656 1.878906 -1.816406 1.921875 -1.609375 C 1.847656 -1.566406 1.757812 -1.53125 1.65625 -1.5 C 1.5625 -1.46875 1.4375 -1.445312 1.28125 -1.4375 C 1.257812 -1.5625 1.226562 -1.648438 1.1875 -1.703125 C 1.144531 -1.765625 1.09375 -1.796875 1.03125 -1.796875 C 0.988281 -1.796875 0.953125 -1.78125 0.921875 -1.75 C 0.898438 -1.726562 0.890625 -1.695312 0.890625 -1.65625 C 0.890625 -1.613281 0.910156 -1.566406 0.953125 -1.515625 C 0.992188 -1.472656 1.082031 -1.410156 1.21875 -1.328125 Z M 1.21875 -1.328125 "/></g></g></g><g fill="#000000" fill-opacity="1"><g transform="translate(31.715927, 16.201512)"><g><path d="M 4.359375 -0.484375 C 4.035156 -0.398438 3.71875 -0.335938 3.40625 -0.296875 C 3.101562 -0.265625 2.757812 -0.25 2.375 -0.25 C 2.375 -1.269531 2.34375 -2.367188 2.28125 -3.546875 C 2.226562 -4.734375 2.148438 -5.753906 2.046875 -6.609375 C 1.953125 -6.597656 1.769531 -6.578125 1.5 -6.546875 C 1.226562 -6.523438 0.867188 -6.492188 0.421875 -6.453125 C 0.328125 -6.710938 0.253906 -6.972656 0.203125 -7.234375 C 0.148438 -7.503906 0.125 -7.769531 0.125 -8.03125 C 1.125 -8.25 2.078125 -8.40625 2.984375 -8.5 C 3.890625 -8.601562 4.910156 -8.65625 6.046875 -8.65625 C 6.085938 -8.53125 6.113281 -8.390625 6.125 -8.234375 C 6.144531 -8.078125 6.15625 -7.90625 6.15625 -7.71875 C 6.15625 -7.59375 6.144531 -7.453125 6.125 -7.296875 C 6.113281 -7.140625 6.085938 -6.972656 6.046875 -6.796875 C 5.765625 -6.796875 5.492188 -6.789062 5.234375 -6.78125 C 4.972656 -6.78125 4.710938 -6.773438 4.453125 -6.765625 C 4.484375 -6.304688 4.503906 -5.832031 4.515625 -5.34375 C 4.535156 -4.863281 4.546875 -4.363281 4.546875 -3.84375 C 4.546875 -3.363281 4.53125 -2.847656 4.5 -2.296875 C 4.46875 -1.742188 4.421875 -1.140625 4.359375 -0.484375 Z M 4.359375 -0.484375 "/></g></g></g><g fill="#000000" fill-opacity="1"><g transform="translate(38.050913, 16.201512)"><g><path d="M 2.203125 -8.25 C 2.421875 -8.25 2.625 -8.226562 2.8125 -8.1875 C 3.007812 -8.15625 3.171875 -8.101562 3.296875 -8.03125 C 3.234375 -7.882812 3.160156 -7.660156 3.078125 -7.359375 C 2.992188 -7.066406 2.9375 -6.8125 2.90625 -6.59375 C 2.65625 -6.539062 2.378906 -6.503906 2.078125 -6.484375 C 1.773438 -6.472656 1.429688 -6.472656 1.046875 -6.484375 C 0.992188 -6.640625 0.953125 -6.796875 0.921875 -6.953125 C 0.898438 -7.117188 0.890625 -7.273438 0.890625 -7.421875 C 0.890625 -7.546875 0.894531 -7.648438 0.90625 -7.734375 C 0.914062 -7.816406 0.929688 -7.894531 0.953125 -7.96875 C 1.117188 -8.0625 1.304688 -8.128906 1.515625 -8.171875 C 1.722656 -8.222656 1.953125 -8.25 2.203125 -8.25 Z M 0.6875 -5.5 C 0.882812 -5.613281 1.113281 -5.695312 1.375 -5.75 C 1.632812 -5.8125 1.921875 -5.84375 2.234375 -5.84375 C 2.378906 -5.84375 2.519531 -5.832031 2.65625 -5.8125 C 2.800781 -5.800781 2.9375 -5.785156 3.0625 -5.765625 C 2.90625 -5.296875 2.765625 -4.546875 2.640625 -3.515625 C 2.523438 -2.484375 2.445312 -1.351562 2.40625 -0.125 C 2.25 -0.0390625 2.050781 0.0195312 1.8125 0.0625 C 1.582031 0.113281 1.335938 0.140625 1.078125 0.140625 C 0.972656 0.140625 0.878906 0.132812 0.796875 0.125 C 0.722656 0.125 0.65625 0.113281 0.59375 0.09375 C 0.488281 -0.945312 0.441406 -1.941406 0.453125 -2.890625 C 0.460938 -3.847656 0.539062 -4.71875 0.6875 -5.5 Z M 0.6875 -5.5 "/></g></g></g><g fill="#000000" fill-opacity="1"><g transform="translate(41.365604, 16.201512)"><g><path d="M 2.625 -1.078125 C 2.625 -0.878906 2.625 -0.675781 2.625 -0.46875 C 2.632812 -0.269531 2.644531 -0.0351562 2.65625 0.234375 C 2.457031 0.296875 2.179688 0.347656 1.828125 0.390625 C 1.484375 0.429688 1.160156 0.453125 0.859375 0.453125 C 0.753906 -0.335938 0.660156 -1.351562 0.578125 -2.59375 C 0.492188 -3.832031 0.453125 -4.875 0.453125 -5.71875 C 0.617188 -5.8125 0.851562 -5.882812 1.15625 -5.9375 C 1.457031 -5.988281 1.769531 -6.015625 2.09375 -6.015625 C 2.238281 -6.015625 2.378906 -6.003906 2.515625 -5.984375 C 2.648438 -5.972656 2.789062 -5.953125 2.9375 -5.921875 C 2.894531 -5.660156 2.863281 -5.472656 2.84375 -5.359375 C 2.832031 -5.242188 2.828125 -5.125 2.828125 -5 C 3.035156 -5.3125 3.273438 -5.539062 3.546875 -5.6875 C 3.816406 -5.84375 4.109375 -5.921875 4.421875 -5.921875 C 4.929688 -5.921875 5.316406 -5.738281 5.578125 -5.375 C 5.847656 -5.007812 5.984375 -4.460938 5.984375 -3.734375 C 5.984375 -3.171875 5.929688 -2.519531 5.828125 -1.78125 C 5.734375 -1.039062 5.640625 -0.484375 5.546875 -0.109375 C 5.253906 -0.109375 4.9375 -0.125 4.59375 -0.15625 C 4.257812 -0.1875 3.867188 -0.238281 3.421875 -0.3125 C 3.546875 -1 3.640625 -1.640625 3.703125 -2.234375 C 3.773438 -2.828125 3.8125 -3.304688 3.8125 -3.671875 C 3.8125 -3.878906 3.78125 -4.03125 3.71875 -4.125 C 3.664062 -4.226562 3.578125 -4.28125 3.453125 -4.28125 C 3.316406 -4.28125 3.179688 -4.195312 3.046875 -4.03125 C 2.921875 -3.875 2.804688 -3.65625 2.703125 -3.375 C 2.671875 -2.914062 2.648438 -2.492188 2.640625 -2.109375 C 2.628906 -1.722656 2.625 -1.378906 2.625 -1.078125 Z M 2.625 -1.078125 "/></g></g></g><g fill="#000000" fill-opacity="1"><g transform="translate(47.885942, 16.201512)"><g><path d="M 5.984375 -3.734375 C 5.984375 -3.128906 5.890625 -2.410156 5.703125 -1.578125 C 5.515625 -0.753906 5.316406 -0.113281 5.109375 0.34375 C 4.816406 0.34375 4.507812 0.3125 4.1875 0.25 C 3.863281 0.1875 3.535156 0.09375 3.203125 -0.03125 C 3.410156 -0.75 3.5625 -1.414062 3.65625 -2.03125 C 3.757812 -2.65625 3.8125 -3.222656 3.8125 -3.734375 C 3.8125 -4.023438 3.785156 -4.222656 3.734375 -4.328125 C 3.691406 -4.441406 3.609375 -4.5 3.484375 -4.5 C 3.378906 -4.5 3.257812 -4.4375 3.125 -4.3125 C 3 -4.195312 2.875 -4.03125 2.75 -3.8125 C 2.726562 -3.519531 2.710938 -3.203125 2.703125 -2.859375 C 2.703125 -2.523438 2.703125 -2.15625 2.703125 -1.75 C 2.703125 -1.550781 2.703125 -1.347656 2.703125 -1.140625 C 2.710938 -0.941406 2.722656 -0.734375 2.734375 -0.515625 C 2.554688 -0.453125 2.269531 -0.398438 1.875 -0.359375 C 1.488281 -0.316406 1.125 -0.296875 0.78125 -0.296875 C 0.726562 -1.128906 0.679688 -1.992188 0.640625 -2.890625 C 0.609375 -3.796875 0.59375 -4.632812 0.59375 -5.40625 C 0.59375 -6.03125 0.597656 -6.535156 0.609375 -6.921875 C 0.617188 -7.304688 0.640625 -7.648438 0.671875 -7.953125 C 0.828125 -8.035156 1.054688 -8.101562 1.359375 -8.15625 C 1.660156 -8.207031 1.992188 -8.234375 2.359375 -8.234375 C 2.554688 -8.234375 2.710938 -8.222656 2.828125 -8.203125 C 2.953125 -8.191406 3.078125 -8.171875 3.203125 -8.140625 C 3.117188 -7.765625 3.046875 -7.332031 2.984375 -6.84375 C 2.921875 -6.363281 2.867188 -5.828125 2.828125 -5.234375 C 3.023438 -5.460938 3.242188 -5.632812 3.484375 -5.75 C 3.722656 -5.863281 3.988281 -5.921875 4.28125 -5.921875 C 4.851562 -5.921875 5.28125 -5.742188 5.5625 -5.390625 C 5.84375 -5.035156 5.984375 -4.484375 5.984375 -3.734375 Z M 5.984375 -3.734375 "/></g></g></g><g fill="#000000" fill-opacity="1"><g transform="translate(54.40628, 16.201512)"><g/></g></g><g fill="#000000" fill-opacity="1"><g transform="translate(56.805063, 16.201512)"><g><path d="M 5.609375 -0.890625 C 5.671875 -0.691406 5.726562 -0.421875 5.78125 -0.078125 C 5.84375 0.265625 5.875 0.554688 5.875 0.796875 C 5.144531 0.796875 4.453125 0.820312 3.796875 0.875 C 3.140625 0.925781 2.320312 1.019531 1.34375 1.15625 C 1.164062 0.0703125 1.007812 -1.296875 0.875 -2.953125 C 0.738281 -4.617188 0.671875 -6.003906 0.671875 -7.109375 C 1.003906 -7.191406 1.332031 -7.253906 1.65625 -7.296875 C 1.988281 -7.347656 2.3125 -7.375 2.625 -7.375 C 2.71875 -7.375 2.8125 -7.367188 2.90625 -7.359375 C 3 -7.359375 3.097656 -7.351562 3.203125 -7.34375 C 3.140625 -6.976562 3.085938 -6.488281 3.046875 -5.875 C 3.015625 -5.269531 3 -4.628906 3 -3.953125 C 3 -2.960938 3.007812 -2.226562 3.03125 -1.75 C 3.0625 -1.269531 3.101562 -0.859375 3.15625 -0.515625 C 3.570312 -0.628906 3.992188 -0.71875 4.421875 -0.78125 C 4.859375 -0.851562 5.253906 -0.890625 5.609375 -0.890625 Z M 5.609375 -0.890625 "/></g></g></g><g fill="#000000" fill-opacity="1"><g transform="translate(62.616675, 16.201512)"><g><path d="M 5.625 -3.90625 C 5.625 -3.445312 5.5625 -2.820312 5.4375 -2.03125 C 5.3125 -1.238281 5.15625 -0.425781 4.96875 0.40625 C 4.707031 0.40625 4.429688 0.390625 4.140625 0.359375 C 3.847656 0.328125 3.566406 0.28125 3.296875 0.21875 C 3.304688 0.09375 3.316406 0 3.328125 -0.0625 C 3.335938 -0.125 3.34375 -0.179688 3.34375 -0.234375 C 3.195312 -0.171875 3.03125 -0.117188 2.84375 -0.078125 C 2.664062 -0.046875 2.46875 -0.03125 2.25 -0.03125 C 1.65625 -0.03125 1.175781 -0.179688 0.8125 -0.484375 C 0.445312 -0.785156 0.265625 -1.191406 0.265625 -1.703125 C 0.265625 -2.210938 0.472656 -2.597656 0.890625 -2.859375 C 1.304688 -3.117188 1.9375 -3.25 2.78125 -3.25 C 3.0625 -3.25 3.25 -3.25 3.34375 -3.25 C 3.4375 -3.25 3.507812 -3.242188 3.5625 -3.234375 C 3.5625 -3.921875 3.519531 -4.382812 3.4375 -4.625 C 3.351562 -4.875 3.222656 -5 3.046875 -5 C 2.867188 -5 2.71875 -4.878906 2.59375 -4.640625 C 2.46875 -4.410156 2.398438 -4.113281 2.390625 -3.75 C 1.921875 -3.75 1.53125 -3.835938 1.21875 -4.015625 C 0.914062 -4.191406 0.707031 -4.441406 0.59375 -4.765625 C 0.726562 -5.140625 1.035156 -5.460938 1.515625 -5.734375 C 2.003906 -6.003906 2.570312 -6.140625 3.21875 -6.140625 C 4.007812 -6.140625 4.609375 -5.945312 5.015625 -5.5625 C 5.421875 -5.1875 5.625 -4.632812 5.625 -3.90625 Z M 2.4375 -1.546875 C 2.4375 -1.378906 2.476562 -1.25 2.5625 -1.15625 C 2.644531 -1.070312 2.769531 -1.03125 2.9375 -1.03125 C 3.039062 -1.03125 3.132812 -1.039062 3.21875 -1.0625 C 3.300781 -1.082031 3.378906 -1.113281 3.453125 -1.15625 C 3.484375 -1.40625 3.503906 -1.625 3.515625 -1.8125 C 3.523438 -2 3.535156 -2.171875 3.546875 -2.328125 C 3.171875 -2.304688 2.890625 -2.234375 2.703125 -2.109375 C 2.523438 -1.984375 2.4375 -1.796875 2.4375 -1.546875 Z M 2.4375 -1.546875 "/></g></g></g><g fill="#000000" fill-opacity="1"><g transform="translate(68.646354, 16.201512)"><g><path d="M 2.625 -1.078125 C 2.625 -0.878906 2.625 -0.675781 2.625 -0.46875 C 2.632812 -0.269531 2.644531 -0.0351562 2.65625 0.234375 C 2.457031 0.296875 2.179688 0.347656 1.828125 0.390625 C 1.484375 0.429688 1.160156 0.453125 0.859375 0.453125 C 0.753906 -0.335938 0.660156 -1.351562 0.578125 -2.59375 C 0.492188 -3.832031 0.453125 -4.875 0.453125 -5.71875 C 0.617188 -5.8125 0.851562 -5.882812 1.15625 -5.9375 C 1.457031 -5.988281 1.769531 -6.015625 2.09375 -6.015625 C 2.238281 -6.015625 2.378906 -6.003906 2.515625 -5.984375 C 2.648438 -5.972656 2.789062 -5.953125 2.9375 -5.921875 C 2.894531 -5.660156 2.863281 -5.472656 2.84375 -5.359375 C 2.832031 -5.242188 2.828125 -5.125 2.828125 -5 C 3.035156 -5.3125 3.273438 -5.539062 3.546875 -5.6875 C 3.816406 -5.84375 4.109375 -5.921875 4.421875 -5.921875 C 4.929688 -5.921875 5.316406 -5.738281 5.578125 -5.375 C 5.847656 -5.007812 5.984375 -4.460938 5.984375 -3.734375 C 5.984375 -3.171875 5.929688 -2.519531 5.828125 -1.78125 C 5.734375 -1.039062 5.640625 -0.484375 5.546875 -0.109375 C 5.253906 -0.109375 4.9375 -0.125 4.59375 -0.15625 C 4.257812 -0.1875 3.867188 -0.238281 3.421875 -0.3125 C 3.546875 -1 3.640625 -1.640625 3.703125 -2.234375 C 3.773438 -2.828125 3.8125 -3.304688 3.8125 -3.671875 C 3.8125 -3.878906 3.78125 -4.03125 3.71875 -4.125 C 3.664062 -4.226562 3.578125 -4.28125 3.453125 -4.28125 C 3.316406 -4.28125 3.179688 -4.195312 3.046875 -4.03125 C 2.921875 -3.875 2.804688 -3.65625 2.703125 -3.375 C 2.671875 -2.914062 2.648438 -2.492188 2.640625 -2.109375 C 2.628906 -1.722656 2.625 -1.378906 2.625 -1.078125 Z M 2.625 -1.078125 "/></g></g></g><g fill="#000000" fill-opacity="1"><g transform="translate(75.166692, 16.201512)"><g/></g></g><g fill="#000000" fill-opacity="1"><g transform="translate(77.565475, 16.201512)"><g><path d="M 4.765625 -2.5625 C 5.066406 -2.59375 5.378906 -2.578125 5.703125 -2.515625 C 6.035156 -2.453125 6.273438 -2.363281 6.421875 -2.25 C 6.367188 -1.414062 6.066406 -0.769531 5.515625 -0.3125 C 4.960938 0.144531 4.210938 0.375 3.265625 0.375 C 2.359375 0.375 1.648438 0.0976562 1.140625 -0.453125 C 0.628906 -1.015625 0.375 -1.8125 0.375 -2.84375 C 0.375 -4.164062 0.738281 -5.28125 1.46875 -6.1875 C 2.195312 -7.101562 3.113281 -7.5625 4.21875 -7.5625 C 4.894531 -7.5625 5.441406 -7.347656 5.859375 -6.921875 C 6.273438 -6.503906 6.515625 -5.925781 6.578125 -5.1875 C 6.191406 -5.007812 5.859375 -4.894531 5.578125 -4.84375 C 5.304688 -4.800781 4.957031 -4.78125 4.53125 -4.78125 C 4.53125 -5.25 4.46875 -5.609375 4.34375 -5.859375 C 4.226562 -6.117188 4.0625 -6.25 3.84375 -6.25 C 3.539062 -6.25 3.285156 -5.96875 3.078125 -5.40625 C 2.878906 -4.84375 2.78125 -4.164062 2.78125 -3.375 C 2.78125 -2.601562 2.875 -2.015625 3.0625 -1.609375 C 3.25 -1.203125 3.507812 -1 3.84375 -1 C 4.195312 -1 4.453125 -1.132812 4.609375 -1.40625 C 4.773438 -1.6875 4.828125 -2.070312 4.765625 -2.5625 Z M 4.765625 -2.5625 "/></g></g></g><g fill="#000000" fill-opacity="1"><g transform="translate(84.303892, 16.201512)"><g><path d="M 0.265625 -2.546875 C 0.265625 -3.566406 0.5625 -4.398438 1.15625 -5.046875 C 1.75 -5.703125 2.519531 -6.03125 3.46875 -6.03125 C 4.175781 -6.03125 4.726562 -5.828125 5.125 -5.421875 C 5.519531 -5.023438 5.71875 -4.460938 5.71875 -3.734375 C 5.71875 -3.273438 5.644531 -2.804688 5.5 -2.328125 C 5.363281 -1.859375 5.164062 -1.445312 4.90625 -1.09375 C 4.613281 -0.695312 4.265625 -0.394531 3.859375 -0.1875 C 3.460938 0.0078125 3.007812 0.109375 2.5 0.109375 C 1.789062 0.109375 1.238281 -0.125 0.84375 -0.59375 C 0.457031 -1.070312 0.265625 -1.722656 0.265625 -2.546875 Z M 3.546875 -3.125 C 3.546875 -3.695312 3.5 -4.113281 3.40625 -4.375 C 3.320312 -4.644531 3.1875 -4.78125 3 -4.78125 C 2.820312 -4.78125 2.675781 -4.597656 2.5625 -4.234375 C 2.457031 -3.878906 2.40625 -3.414062 2.40625 -2.84375 C 2.40625 -2.375 2.453125 -1.972656 2.546875 -1.640625 C 2.648438 -1.304688 2.789062 -1.140625 2.96875 -1.140625 C 3.144531 -1.140625 3.285156 -1.320312 3.390625 -1.6875 C 3.492188 -2.0625 3.546875 -2.539062 3.546875 -3.125 Z M 3.546875 -3.125 "/></g></g></g><g fill="#000000" fill-opacity="1"><g transform="translate(90.344481, 16.201512)"><g><path d="M 3.34375 -3.671875 C 4 -3.273438 4.4375 -2.921875 4.65625 -2.609375 C 4.882812 -2.296875 5 -1.945312 5 -1.5625 C 5 -0.96875 4.742188 -0.476562 4.234375 -0.09375 C 3.722656 0.289062 3.097656 0.484375 2.359375 0.484375 C 1.734375 0.484375 1.207031 0.296875 0.78125 -0.078125 C 0.363281 -0.453125 0.15625 -0.898438 0.15625 -1.421875 C 0.332031 -1.492188 0.554688 -1.554688 0.828125 -1.609375 C 1.109375 -1.671875 1.359375 -1.703125 1.578125 -1.703125 C 1.578125 -1.378906 1.640625 -1.117188 1.765625 -0.921875 C 1.898438 -0.722656 2.09375 -0.625 2.34375 -0.625 C 2.53125 -0.625 2.671875 -0.664062 2.765625 -0.75 C 2.859375 -0.832031 2.90625 -0.945312 2.90625 -1.09375 C 2.90625 -1.25 2.84375 -1.398438 2.71875 -1.546875 C 2.601562 -1.691406 2.335938 -1.894531 1.921875 -2.15625 C 1.304688 -2.53125 0.894531 -2.863281 0.6875 -3.15625 C 0.476562 -3.457031 0.375 -3.796875 0.375 -4.171875 C 0.375 -4.742188 0.597656 -5.222656 1.046875 -5.609375 C 1.492188 -5.992188 2.066406 -6.1875 2.765625 -6.1875 C 3.460938 -6.1875 4.023438 -6.03125 4.453125 -5.71875 C 4.890625 -5.414062 5.164062 -4.988281 5.28125 -4.4375 C 5.070312 -4.300781 4.832031 -4.191406 4.5625 -4.109375 C 4.289062 -4.035156 3.9375 -3.984375 3.5 -3.953125 C 3.445312 -4.296875 3.367188 -4.546875 3.265625 -4.703125 C 3.160156 -4.859375 3.015625 -4.9375 2.828125 -4.9375 C 2.710938 -4.9375 2.617188 -4.898438 2.546875 -4.828125 C 2.472656 -4.753906 2.4375 -4.65625 2.4375 -4.53125 C 2.4375 -4.414062 2.488281 -4.296875 2.59375 -4.171875 C 2.707031 -4.054688 2.957031 -3.890625 3.34375 -3.671875 Z M 3.34375 -3.671875 "/></g></g></g><g fill="#000000" fill-opacity="1"><g transform="translate(95.785365, 16.201512)"><g><path d="M 8.96875 -4.25 C 8.96875 -3.5625 8.898438 -2.753906 8.765625 -1.828125 C 8.628906 -0.910156 8.476562 -0.144531 8.3125 0.46875 C 7.882812 0.46875 7.492188 0.445312 7.140625 0.40625 C 6.785156 0.375 6.445312 0.320312 6.125 0.25 C 6.375 -0.894531 6.550781 -1.804688 6.65625 -2.484375 C 6.757812 -3.171875 6.8125 -3.738281 6.8125 -4.1875 C 6.8125 -4.394531 6.78125 -4.546875 6.71875 -4.640625 C 6.65625 -4.734375 6.566406 -4.78125 6.453125 -4.78125 C 6.328125 -4.78125 6.207031 -4.695312 6.09375 -4.53125 C 5.976562 -4.363281 5.875 -4.128906 5.78125 -3.828125 L 5.78125 -3.734375 C 5.78125 -3.171875 5.734375 -2.519531 5.640625 -1.78125 C 5.546875 -1.039062 5.445312 -0.484375 5.34375 -0.109375 C 5.0625 -0.109375 4.757812 -0.125 4.4375 -0.15625 C 4.113281 -0.1875 3.738281 -0.238281 3.3125 -0.3125 C 3.445312 -1.125 3.546875 -1.785156 3.609375 -2.296875 C 3.671875 -2.804688 3.703125 -3.226562 3.703125 -3.5625 C 3.703125 -3.757812 3.671875 -3.90625 3.609375 -4 C 3.554688 -4.101562 3.46875 -4.15625 3.34375 -4.15625 C 3.21875 -4.15625 3.09375 -4.070312 2.96875 -3.90625 C 2.84375 -3.738281 2.738281 -3.503906 2.65625 -3.203125 C 2.644531 -2.617188 2.632812 -2.175781 2.625 -1.875 C 2.625 -1.570312 2.625 -1.304688 2.625 -1.078125 C 2.625 -1.023438 2.625 -0.90625 2.625 -0.71875 C 2.625 -0.539062 2.625 -0.378906 2.625 -0.234375 C 2.425781 -0.179688 2.148438 -0.128906 1.796875 -0.078125 C 1.453125 -0.0351562 1.128906 -0.015625 0.828125 -0.015625 C 0.691406 -1.035156 0.570312 -2.097656 0.46875 -3.203125 C 0.375 -4.316406 0.328125 -5.226562 0.328125 -5.9375 C 0.492188 -6.019531 0.726562 -6.085938 1.03125 -6.140625 C 1.34375 -6.191406 1.65625 -6.21875 1.96875 -6.21875 C 2.113281 -6.21875 2.253906 -6.207031 2.390625 -6.1875 C 2.535156 -6.175781 2.675781 -6.15625 2.8125 -6.125 C 2.789062 -5.9375 2.769531 -5.722656 2.75 -5.484375 C 2.726562 -5.253906 2.710938 -5.019531 2.703125 -4.78125 C 2.910156 -5.125 3.160156 -5.378906 3.453125 -5.546875 C 3.742188 -5.710938 4.066406 -5.796875 4.421875 -5.796875 C 4.671875 -5.796875 4.882812 -5.738281 5.0625 -5.625 C 5.25 -5.519531 5.394531 -5.363281 5.5 -5.15625 C 5.738281 -5.570312 6.023438 -5.890625 6.359375 -6.109375 C 6.703125 -6.328125 7.09375 -6.4375 7.53125 -6.4375 C 8 -6.4375 8.351562 -6.25 8.59375 -5.875 C 8.84375 -5.507812 8.96875 -4.96875 8.96875 -4.25 Z M 8.96875 -4.25 "/></g></g></g><g fill="#000000" fill-opacity="1"><g transform="translate(105.293292, 16.201512)"><g><path d="M 2.640625 -3.78125 C 2.722656 -3.75 2.804688 -3.726562 2.890625 -3.71875 C 2.972656 -3.707031 3.046875 -3.703125 3.109375 -3.703125 C 3.171875 -3.703125 3.238281 -3.703125 3.3125 -3.703125 C 3.382812 -3.710938 3.4375 -3.722656 3.46875 -3.734375 C 3.507812 -3.898438 3.539062 -4.0625 3.5625 -4.21875 C 3.59375 -4.375 3.609375 -4.515625 3.609375 -4.640625 C 3.609375 -4.785156 3.585938 -4.894531 3.546875 -4.96875 C 3.503906 -5.039062 3.445312 -5.078125 3.375 -5.078125 C 3.226562 -5.078125 3.085938 -4.957031 2.953125 -4.71875 C 2.828125 -4.488281 2.722656 -4.175781 2.640625 -3.78125 Z M 3.953125 -2.09375 C 4.234375 -2.039062 4.515625 -1.941406 4.796875 -1.796875 C 5.085938 -1.648438 5.320312 -1.476562 5.5 -1.28125 C 5.445312 -1.09375 5.3125 -0.890625 5.09375 -0.671875 C 4.882812 -0.453125 4.640625 -0.269531 4.359375 -0.125 C 4.117188 -0.0078125 3.863281 0.078125 3.59375 0.140625 C 3.320312 0.203125 3.035156 0.234375 2.734375 0.234375 C 1.984375 0.234375 1.394531 0.015625 0.96875 -0.421875 C 0.539062 -0.867188 0.328125 -1.46875 0.328125 -2.21875 C 0.328125 -2.695312 0.398438 -3.160156 0.546875 -3.609375 C 0.703125 -4.066406 0.914062 -4.484375 1.1875 -4.859375 C 1.5 -5.265625 1.859375 -5.582031 2.265625 -5.8125 C 2.671875 -6.050781 3.085938 -6.171875 3.515625 -6.171875 C 4.128906 -6.171875 4.617188 -6.015625 4.984375 -5.703125 C 5.347656 -5.398438 5.53125 -4.988281 5.53125 -4.46875 C 5.53125 -4.238281 5.503906 -3.984375 5.453125 -3.703125 C 5.410156 -3.421875 5.351562 -3.179688 5.28125 -2.984375 C 5.050781 -2.867188 4.769531 -2.785156 4.4375 -2.734375 C 4.113281 -2.679688 3.722656 -2.65625 3.265625 -2.65625 C 3.128906 -2.65625 3 -2.660156 2.875 -2.671875 C 2.75 -2.679688 2.625 -2.695312 2.5 -2.71875 C 2.488281 -2.675781 2.484375 -2.628906 2.484375 -2.578125 C 2.484375 -2.523438 2.484375 -2.441406 2.484375 -2.328125 C 2.484375 -1.890625 2.539062 -1.554688 2.65625 -1.328125 C 2.769531 -1.097656 2.929688 -0.984375 3.140625 -0.984375 C 3.273438 -0.984375 3.421875 -1.09375 3.578125 -1.3125 C 3.742188 -1.539062 3.867188 -1.800781 3.953125 -2.09375 Z M 3.953125 -2.09375 "/></g></g></g><g fill="#000000" fill-opacity="1"><g transform="translate(111.235744, 16.201512)"><g><path d="M 3.375 -2.53125 C 3.613281 -2.5 3.863281 -2.429688 4.125 -2.328125 C 4.382812 -2.234375 4.617188 -2.101562 4.828125 -1.9375 C 4.828125 -1.414062 4.660156 -0.972656 4.328125 -0.609375 C 4.003906 -0.242188 3.550781 -0.0625 2.96875 -0.0625 C 2.226562 -0.0625 1.65625 -0.320312 1.25 -0.84375 C 0.851562 -1.363281 0.65625 -2.117188 0.65625 -3.109375 C 0.65625 -3.335938 0.65625 -3.578125 0.65625 -3.828125 C 0.664062 -4.078125 0.679688 -4.34375 0.703125 -4.625 C 0.554688 -4.644531 0.414062 -4.671875 0.28125 -4.703125 C 0.15625 -4.734375 0.046875 -4.757812 -0.046875 -4.78125 C -0.046875 -5.019531 -0.0234375 -5.242188 0.015625 -5.453125 C 0.0546875 -5.660156 0.117188 -5.820312 0.203125 -5.9375 C 0.273438 -5.914062 0.363281 -5.890625 0.46875 -5.859375 C 0.570312 -5.835938 0.695312 -5.816406 0.84375 -5.796875 C 0.894531 -6.097656 0.941406 -6.359375 0.984375 -6.578125 C 1.035156 -6.804688 1.085938 -7.003906 1.140625 -7.171875 C 1.566406 -7.171875 1.984375 -7.144531 2.390625 -7.09375 C 2.804688 -7.039062 3.144531 -6.96875 3.40625 -6.875 C 3.363281 -6.707031 3.316406 -6.515625 3.265625 -6.296875 C 3.210938 -6.085938 3.164062 -5.867188 3.125 -5.640625 C 3.4375 -5.628906 3.726562 -5.628906 4 -5.640625 C 4.28125 -5.648438 4.53125 -5.671875 4.75 -5.703125 C 4.75 -5.535156 4.726562 -5.347656 4.6875 -5.140625 C 4.65625 -4.929688 4.601562 -4.738281 4.53125 -4.5625 C 4.351562 -4.519531 4.117188 -4.488281 3.828125 -4.46875 C 3.546875 -4.457031 3.25 -4.453125 2.9375 -4.453125 C 2.90625 -4.179688 2.878906 -3.90625 2.859375 -3.625 C 2.835938 -3.351562 2.828125 -3.09375 2.828125 -2.84375 C 2.828125 -2.238281 2.847656 -1.828125 2.890625 -1.609375 C 2.929688 -1.390625 3.003906 -1.28125 3.109375 -1.28125 C 3.171875 -1.28125 3.226562 -1.390625 3.28125 -1.609375 C 3.332031 -1.835938 3.363281 -2.144531 3.375 -2.53125 Z M 3.375 -2.53125 "/></g></g></g><g fill="#000000" fill-opacity="1"><g transform="translate(116.25139, 16.201512)"><g><path d="M 2.203125 -8.25 C 2.421875 -8.25 2.625 -8.226562 2.8125 -8.1875 C 3.007812 -8.15625 3.171875 -8.101562 3.296875 -8.03125 C 3.234375 -7.882812 3.160156 -7.660156 3.078125 -7.359375 C 2.992188 -7.066406 2.9375 -6.8125 2.90625 -6.59375 C 2.65625 -6.539062 2.378906 -6.503906 2.078125 -6.484375 C 1.773438 -6.472656 1.429688 -6.472656 1.046875 -6.484375 C 0.992188 -6.640625 0.953125 -6.796875 0.921875 -6.953125 C 0.898438 -7.117188 0.890625 -7.273438 0.890625 -7.421875 C 0.890625 -7.546875 0.894531 -7.648438 0.90625 -7.734375 C 0.914062 -7.816406 0.929688 -7.894531 0.953125 -7.96875 C 1.117188 -8.0625 1.304688 -8.128906 1.515625 -8.171875 C 1.722656 -8.222656 1.953125 -8.25 2.203125 -8.25 Z M 0.6875 -5.5 C 0.882812 -5.613281 1.113281 -5.695312 1.375 -5.75 C 1.632812 -5.8125 1.921875 -5.84375 2.234375 -5.84375 C 2.378906 -5.84375 2.519531 -5.832031 2.65625 -5.8125 C 2.800781 -5.800781 2.9375 -5.785156 3.0625 -5.765625 C 2.90625 -5.296875 2.765625 -4.546875 2.640625 -3.515625 C 2.523438 -2.484375 2.445312 -1.351562 2.40625 -0.125 C 2.25 -0.0390625 2.050781 0.0195312 1.8125 0.0625 C 1.582031 0.113281 1.335938 0.140625 1.078125 0.140625 C 0.972656 0.140625 0.878906 0.132812 0.796875 0.125 C 0.722656 0.125 0.65625 0.113281 0.59375 0.09375 C 0.488281 -0.945312 0.441406 -1.941406 0.453125 -2.890625 C 0.460938 -3.847656 0.539062 -4.71875 0.6875 -5.5 Z M 0.6875 -5.5 "/></g></g></g><g fill="#000000" fill-opacity="1"><g transform="translate(119.566081, 16.201512)"><g><path d="M 5.578125 -4.0625 C 5.335938 -3.945312 5.066406 -3.863281 4.765625 -3.8125 C 4.460938 -3.757812 4.101562 -3.734375 3.6875 -3.734375 C 3.6875 -4.117188 3.648438 -4.398438 3.578125 -4.578125 C 3.515625 -4.765625 3.410156 -4.859375 3.265625 -4.859375 C 3.046875 -4.859375 2.859375 -4.59375 2.703125 -4.0625 C 2.546875 -3.539062 2.46875 -2.953125 2.46875 -2.296875 C 2.46875 -1.867188 2.519531 -1.535156 2.625 -1.296875 C 2.738281 -1.054688 2.894531 -0.9375 3.09375 -0.9375 C 3.257812 -0.9375 3.429688 -1.003906 3.609375 -1.140625 C 3.796875 -1.285156 4.035156 -1.570312 4.328125 -2 C 4.535156 -1.957031 4.738281 -1.867188 4.9375 -1.734375 C 5.144531 -1.597656 5.316406 -1.4375 5.453125 -1.25 C 5.390625 -1.050781 5.253906 -0.84375 5.046875 -0.625 C 4.835938 -0.414062 4.585938 -0.238281 4.296875 -0.09375 C 4.066406 0.03125 3.8125 0.117188 3.53125 0.171875 C 3.257812 0.234375 2.976562 0.265625 2.6875 0.265625 C 1.925781 0.265625 1.332031 0.0390625 0.90625 -0.40625 C 0.476562 -0.851562 0.265625 -1.457031 0.265625 -2.21875 C 0.265625 -2.65625 0.335938 -3.09375 0.484375 -3.53125 C 0.628906 -3.976562 0.835938 -4.375 1.109375 -4.71875 C 1.398438 -5.113281 1.738281 -5.410156 2.125 -5.609375 C 2.519531 -5.816406 2.945312 -5.921875 3.40625 -5.921875 C 4.09375 -5.921875 4.625 -5.753906 5 -5.421875 C 5.382812 -5.085938 5.578125 -4.632812 5.578125 -4.0625 Z M 5.578125 -4.0625 "/></g></g></g><g fill="#000000" fill-opacity="1"><g transform="translate(125.246852, 16.201512)"><g><path d="M 3.34375 -3.671875 C 4 -3.273438 4.4375 -2.921875 4.65625 -2.609375 C 4.882812 -2.296875 5 -1.945312 5 -1.5625 C 5 -0.96875 4.742188 -0.476562 4.234375 -0.09375 C 3.722656 0.289062 3.097656 0.484375 2.359375 0.484375 C 1.734375 0.484375 1.207031 0.296875 0.78125 -0.078125 C 0.363281 -0.453125 0.15625 -0.898438 0.15625 -1.421875 C 0.332031 -1.492188 0.554688 -1.554688 0.828125 -1.609375 C 1.109375 -1.671875 1.359375 -1.703125 1.578125 -1.703125 C 1.578125 -1.378906 1.640625 -1.117188 1.765625 -0.921875 C 1.898438 -0.722656 2.09375 -0.625 2.34375 -0.625 C 2.53125 -0.625 2.671875 -0.664062 2.765625 -0.75 C 2.859375 -0.832031 2.90625 -0.945312 2.90625 -1.09375 C 2.90625 -1.25 2.84375 -1.398438 2.71875 -1.546875 C 2.601562 -1.691406 2.335938 -1.894531 1.921875 -2.15625 C 1.304688 -2.53125 0.894531 -2.863281 0.6875 -3.15625 C 0.476562 -3.457031 0.375 -3.796875 0.375 -4.171875 C 0.375 -4.742188 0.597656 -5.222656 1.046875 -5.609375 C 1.492188 -5.992188 2.066406 -6.1875 2.765625 -6.1875 C 3.460938 -6.1875 4.023438 -6.03125 4.453125 -5.71875 C 4.890625 -5.414062 5.164062 -4.988281 5.28125 -4.4375 C 5.070312 -4.300781 4.832031 -4.191406 4.5625 -4.109375 C 4.289062 -4.035156 3.9375 -3.984375 3.5 -3.953125 C 3.445312 -4.296875 3.367188 -4.546875 3.265625 -4.703125 C 3.160156 -4.859375 3.015625 -4.9375 2.828125 -4.9375 C 2.710938 -4.9375 2.617188 -4.898438 2.546875 -4.828125 C 2.472656 -4.753906 2.4375 -4.65625 2.4375 -4.53125 C 2.4375 -4.414062 2.488281 -4.296875 2.59375 -4.171875 C 2.707031 -4.054688 2.957031 -3.890625 3.34375 -3.671875 Z M 3.34375 -3.671875 "/></g></g></g><g fill="#000000" fill-opacity="1"><g transform="translate(60.67761, 22.790757)"><g><path d="M 0.9375 0 L 0.9375 -2.296875 L 0.046875 -2.296875 L 0.046875 -2.546875 L 2.109375 -2.546875 L 2.109375 -2.296875 L 1.234375 -2.296875 L 1.234375 0 Z M 0.9375 0 "/></g></g></g><g fill="#000000" fill-opacity="1"><g transform="translate(62.832788, 22.790757)"><g><path d="M 2.21875 -2.28125 L 2.21875 -2.1875 C 2.21875 -2.03125 2.179688 -1.90625 2.109375 -1.8125 C 2.035156 -1.71875 1.925781 -1.660156 1.78125 -1.640625 L 1.78125 0 L 1.5 0 L 1.5 -0.3125 C 1.445312 -0.195312 1.367188 -0.109375 1.265625 -0.046875 C 1.160156 0.00390625 1.046875 0.03125 0.921875 0.03125 C 0.703125 0.03125 0.535156 -0.0234375 0.421875 -0.140625 C 0.316406 -0.265625 0.265625 -0.445312 0.265625 -0.6875 L 0.265625 -1.796875 L 0.5625 -1.796875 L 0.5625 -0.6875 C 0.5625 -0.53125 0.59375 -0.410156 0.65625 -0.328125 C 0.726562 -0.253906 0.832031 -0.21875 0.96875 -0.21875 C 1.125 -0.21875 1.25 -0.269531 1.34375 -0.375 C 1.445312 -0.476562 1.5 -0.613281 1.5 -0.78125 L 1.5 -1.796875 L 1.578125 -1.796875 C 1.710938 -1.796875 1.804688 -1.828125 1.859375 -1.890625 C 1.921875 -1.960938 1.953125 -2.070312 1.953125 -2.21875 L 1.953125 -2.28125 Z M 0.859375 0.34375 L 1.203125 0.34375 L 1.203125 0.65625 L 0.859375 0.65625 Z M 0.859375 0.34375 "/></g></g></g><g fill="#000000" fill-opacity="1"><g transform="translate(64.945079, 22.790757)"><g/></g></g><g fill="#000000" fill-opacity="1"><g transform="translate(65.877916, 22.790757)"><g><path d="M 0.671875 -1.578125 L 0.671875 -0.59375 C 0.671875 -0.457031 0.695312 -0.359375 0.75 -0.296875 C 0.800781 -0.242188 0.878906 -0.21875 0.984375 -0.21875 C 1.046875 -0.21875 1.109375 -0.226562 1.171875 -0.25 L 1.171875 -0.015625 C 1.097656 0.015625 1.015625 0.03125 0.921875 0.03125 C 0.753906 0.03125 0.617188 -0.015625 0.515625 -0.109375 C 0.421875 -0.210938 0.375 -0.359375 0.375 -0.546875 L 0.375 -1.578125 L 0.03125 -1.578125 L 0.03125 -1.796875 L 0.375 -1.796875 L 0.375 -2.265625 L 0.671875 -2.359375 L 0.671875 -1.796875 L 1.1875 -1.796875 L 1.1875 -1.578125 Z M 0.671875 -1.578125 "/></g></g></g><g fill="#000000" fill-opacity="1"><g transform="translate(67.128847, 22.790757)"><g><path d="M 0.28125 0 L 0.28125 -1.796875 L 0.5625 -1.796875 L 0.5625 0 Z M 0.25 -2.5625 L 0.59375 -2.5625 L 0.59375 -2.234375 L 0.25 -2.234375 Z M 0.25 -2.5625 "/></g></g></g><g fill="#000000" fill-opacity="1"><g transform="translate(67.97948, 22.790757)"><g><path d="M 1.171875 -1.84375 C 1.609375 -1.84375 1.828125 -1.601562 1.828125 -1.125 L 1.828125 0 L 1.53125 0 L 1.53125 -1.109375 C 1.53125 -1.273438 1.492188 -1.394531 1.421875 -1.46875 C 1.359375 -1.550781 1.257812 -1.59375 1.125 -1.59375 C 0.957031 -1.59375 0.820312 -1.539062 0.71875 -1.4375 C 0.613281 -1.34375 0.5625 -1.207031 0.5625 -1.03125 L 0.5625 0 L 0.28125 0 L 0.28125 -1.296875 C 0.28125 -1.484375 0.269531 -1.648438 0.25 -1.796875 L 0.53125 -1.796875 L 0.546875 -1.484375 C 0.609375 -1.597656 0.691406 -1.6875 0.796875 -1.75 C 0.910156 -1.8125 1.035156 -1.84375 1.171875 -1.84375 Z M 1.171875 -1.84375 "/></g></g></g><g fill="#000000" fill-opacity="1"><g transform="translate(70.070324, 22.790757)"><g/></g></g><g fill="#000000" fill-opacity="1"><g transform="translate(71.003161, 22.790757)"><g><path d="M 0.671875 -1.578125 L 0.671875 -0.59375 C 0.671875 -0.457031 0.695312 -0.359375 0.75 -0.296875 C 0.800781 -0.242188 0.878906 -0.21875 0.984375 -0.21875 C 1.046875 -0.21875 1.109375 -0.226562 1.171875 -0.25 L 1.171875 -0.015625 C 1.097656 0.015625 1.015625 0.03125 0.921875 0.03125 C 0.753906 0.03125 0.617188 -0.015625 0.515625 -0.109375 C 0.421875 -0.210938 0.375 -0.359375 0.375 -0.546875 L 0.375 -1.578125 L 0.03125 -1.578125 L 0.03125 -1.796875 L 0.375 -1.796875 L 0.375 -2.265625 L 0.671875 -2.359375 L 0.671875 -1.796875 L 1.1875 -1.796875 L 1.1875 -1.578125 Z M 0.671875 -1.578125 "/></g></g></g><g fill="#000000" fill-opacity="1"><g transform="translate(72.254093, 22.790757)"><g><path d="M 1.015625 0.03125 C 0.847656 0.03125 0.703125 -0.00390625 0.578125 -0.078125 C 0.453125 -0.160156 0.351562 -0.269531 0.28125 -0.40625 C 0.207031 -0.550781 0.171875 -0.71875 0.171875 -0.90625 C 0.171875 -1.09375 0.207031 -1.253906 0.28125 -1.390625 C 0.351562 -1.535156 0.453125 -1.644531 0.578125 -1.71875 C 0.703125 -1.800781 0.847656 -1.84375 1.015625 -1.84375 C 1.191406 -1.84375 1.34375 -1.800781 1.46875 -1.71875 C 1.59375 -1.644531 1.691406 -1.535156 1.765625 -1.390625 C 1.835938 -1.253906 1.875 -1.09375 1.875 -0.90625 C 1.875 -0.71875 1.835938 -0.550781 1.765625 -0.40625 C 1.691406 -0.269531 1.59375 -0.160156 1.46875 -0.078125 C 1.34375 -0.00390625 1.191406 0.03125 1.015625 0.03125 Z M 1.015625 -0.21875 C 1.203125 -0.21875 1.34375 -0.273438 1.4375 -0.390625 C 1.53125 -0.503906 1.578125 -0.675781 1.578125 -0.90625 C 1.578125 -1.125 1.523438 -1.289062 1.421875 -1.40625 C 1.328125 -1.53125 1.191406 -1.59375 1.015625 -1.59375 C 0.847656 -1.59375 0.710938 -1.53125 0.609375 -1.40625 C 0.515625 -1.289062 0.46875 -1.125 0.46875 -0.90625 C 0.46875 -0.675781 0.515625 -0.503906 0.609375 -0.390625 C 0.703125 -0.273438 0.835938 -0.21875 1.015625 -0.21875 Z M 1.125 -2.046875 L 0.921875 -2.046875 L 0.921875 -2.140625 C 0.921875 -2.191406 0.929688 -2.234375 0.953125 -2.265625 C 0.984375 -2.296875 1.019531 -2.332031 1.0625 -2.375 C 1.101562 -2.414062 1.128906 -2.441406 1.140625 -2.453125 C 1.148438 -2.472656 1.15625 -2.492188 1.15625 -2.515625 C 1.15625 -2.546875 1.140625 -2.566406 1.109375 -2.578125 C 1.085938 -2.597656 1.054688 -2.609375 1.015625 -2.609375 C 0.941406 -2.609375 0.867188 -2.59375 0.796875 -2.5625 L 0.75 -2.71875 C 0.84375 -2.757812 0.9375 -2.78125 1.03125 -2.78125 C 1.144531 -2.78125 1.234375 -2.753906 1.296875 -2.703125 C 1.359375 -2.660156 1.390625 -2.601562 1.390625 -2.53125 C 1.390625 -2.476562 1.375 -2.429688 1.34375 -2.390625 C 1.320312 -2.359375 1.289062 -2.320312 1.25 -2.28125 C 1.207031 -2.25 1.175781 -2.21875 1.15625 -2.1875 C 1.132812 -2.164062 1.125 -2.132812 1.125 -2.09375 Z M 1.125 -2.046875 "/></g></g></g><g fill="#000000" fill-opacity="1"><g transform="translate(74.298472, 22.790757)"><g><path d="M 1.859375 -1.796875 L 1.859375 0 L 1.578125 0 L 1.578125 -0.328125 C 1.523438 -0.210938 1.445312 -0.125 1.34375 -0.0625 C 1.238281 0 1.113281 0.03125 0.96875 0.03125 C 0.8125 0.03125 0.671875 -0.00390625 0.546875 -0.078125 C 0.429688 -0.160156 0.335938 -0.269531 0.265625 -0.40625 C 0.203125 -0.550781 0.171875 -0.71875 0.171875 -0.90625 C 0.171875 -1.09375 0.203125 -1.253906 0.265625 -1.390625 C 0.335938 -1.535156 0.429688 -1.644531 0.546875 -1.71875 C 0.671875 -1.800781 0.8125 -1.84375 0.96875 -1.84375 C 1.113281 -1.84375 1.238281 -1.8125 1.34375 -1.75 C 1.445312 -1.6875 1.523438 -1.597656 1.578125 -1.484375 L 1.578125 -1.796875 Z M 1.03125 -0.21875 C 1.207031 -0.21875 1.34375 -0.273438 1.4375 -0.390625 C 1.53125 -0.515625 1.578125 -0.6875 1.578125 -0.90625 C 1.578125 -1.125 1.53125 -1.289062 1.4375 -1.40625 C 1.34375 -1.53125 1.207031 -1.59375 1.03125 -1.59375 C 0.851562 -1.59375 0.710938 -1.53125 0.609375 -1.40625 C 0.515625 -1.289062 0.46875 -1.125 0.46875 -0.90625 C 0.46875 -0.6875 0.515625 -0.515625 0.609375 -0.390625 C 0.710938 -0.273438 0.851562 -0.21875 1.03125 -0.21875 Z M 1.03125 -0.21875 "/></g></g></g><g fill="#000000" fill-opacity="1"><g transform="translate(76.44293, 22.790757)"><g/></g></g><g fill="#000000" fill-opacity="1"><g transform="translate(77.375767, 22.790757)"><g><path d="M 0.890625 0.03125 C 0.585938 0.03125 0.347656 -0.046875 0.171875 -0.203125 L 0.265625 -0.421875 C 0.359375 -0.347656 0.457031 -0.289062 0.5625 -0.25 C 0.664062 -0.21875 0.773438 -0.203125 0.890625 -0.203125 C 1.035156 -0.203125 1.140625 -0.222656 1.203125 -0.265625 C 1.273438 -0.316406 1.3125 -0.390625 1.3125 -0.484375 C 1.3125 -0.554688 1.285156 -0.613281 1.234375 -0.65625 C 1.191406 -0.695312 1.113281 -0.726562 1 -0.75 L 0.703125 -0.828125 C 0.546875 -0.859375 0.425781 -0.914062 0.34375 -1 C 0.269531 -1.082031 0.234375 -1.1875 0.234375 -1.3125 C 0.234375 -1.46875 0.296875 -1.59375 0.421875 -1.6875 C 0.546875 -1.789062 0.710938 -1.84375 0.921875 -1.84375 C 1.046875 -1.84375 1.164062 -1.820312 1.28125 -1.78125 C 1.394531 -1.738281 1.488281 -1.679688 1.5625 -1.609375 L 1.46875 -1.390625 C 1.289062 -1.535156 1.109375 -1.609375 0.921875 -1.609375 C 0.785156 -1.609375 0.679688 -1.582031 0.609375 -1.53125 C 0.546875 -1.476562 0.515625 -1.410156 0.515625 -1.328125 C 0.515625 -1.253906 0.535156 -1.195312 0.578125 -1.15625 C 0.617188 -1.113281 0.691406 -1.078125 0.796875 -1.046875 L 1.09375 -0.984375 C 1.257812 -0.941406 1.382812 -0.878906 1.46875 -0.796875 C 1.550781 -0.722656 1.59375 -0.617188 1.59375 -0.484375 C 1.59375 -0.328125 1.53125 -0.203125 1.40625 -0.109375 C 1.28125 -0.015625 1.109375 0.03125 0.890625 0.03125 Z M 0.890625 0.03125 "/></g></g></g><g fill="#000000" fill-opacity="1"><g transform="translate(79.148516, 22.790757)"><g><path d="M 1.859375 -1.796875 L 1.859375 0 L 1.578125 0 L 1.578125 -0.328125 C 1.523438 -0.210938 1.445312 -0.125 1.34375 -0.0625 C 1.238281 0 1.113281 0.03125 0.96875 0.03125 C 0.8125 0.03125 0.671875 -0.00390625 0.546875 -0.078125 C 0.429688 -0.160156 0.335938 -0.269531 0.265625 -0.40625 C 0.203125 -0.550781 0.171875 -0.71875 0.171875 -0.90625 C 0.171875 -1.09375 0.203125 -1.253906 0.265625 -1.390625 C 0.335938 -1.535156 0.429688 -1.644531 0.546875 -1.71875 C 0.671875 -1.800781 0.8125 -1.84375 0.96875 -1.84375 C 1.113281 -1.84375 1.238281 -1.8125 1.34375 -1.75 C 1.445312 -1.6875 1.523438 -1.597656 1.578125 -1.484375 L 1.578125 -1.796875 Z M 1.03125 -0.21875 C 1.207031 -0.21875 1.34375 -0.273438 1.4375 -0.390625 C 1.53125 -0.515625 1.578125 -0.6875 1.578125 -0.90625 C 1.578125 -1.125 1.53125 -1.289062 1.4375 -1.40625 C 1.34375 -1.53125 1.207031 -1.59375 1.03125 -1.59375 C 0.851562 -1.59375 0.710938 -1.53125 0.609375 -1.40625 C 0.515625 -1.289062 0.46875 -1.125 0.46875 -0.90625 C 0.46875 -0.6875 0.515625 -0.515625 0.609375 -0.390625 C 0.710938 -0.273438 0.851562 -0.21875 1.03125 -0.21875 Z M 1.1875 -2.046875 L 0.96875 -2.046875 L 1.328125 -2.765625 L 1.671875 -2.765625 Z M 1.1875 -2.046875 "/></g></g></g><g fill="#000000" fill-opacity="1"><g transform="translate(81.292974, 22.790757)"><g><path d="M 1.171875 -1.84375 C 1.609375 -1.84375 1.828125 -1.601562 1.828125 -1.125 L 1.828125 0 L 1.53125 0 L 1.53125 -1.109375 C 1.53125 -1.273438 1.492188 -1.394531 1.421875 -1.46875 C 1.359375 -1.550781 1.257812 -1.59375 1.125 -1.59375 C 0.957031 -1.59375 0.820312 -1.539062 0.71875 -1.4375 C 0.613281 -1.34375 0.5625 -1.207031 0.5625 -1.03125 L 0.5625 0 L 0.28125 0 L 0.28125 -1.296875 C 0.28125 -1.484375 0.269531 -1.648438 0.25 -1.796875 L 0.53125 -1.796875 L 0.546875 -1.484375 C 0.609375 -1.597656 0.691406 -1.6875 0.796875 -1.75 C 0.910156 -1.8125 1.035156 -1.84375 1.171875 -1.84375 Z M 1.171875 -1.84375 "/></g></g></g><g fill="#000000" fill-opacity="1"><g transform="translate(83.383817, 22.790757)"><g><path d="M 1.875 -1.796875 L 1.875 -0.015625 C 1.875 0.253906 1.804688 0.457031 1.671875 0.59375 C 1.535156 0.726562 1.332031 0.796875 1.0625 0.796875 C 0.789062 0.796875 0.554688 0.734375 0.359375 0.609375 L 0.40625 0.375 C 0.519531 0.4375 0.628906 0.484375 0.734375 0.515625 C 0.835938 0.546875 0.945312 0.5625 1.0625 0.5625 C 1.238281 0.5625 1.367188 0.515625 1.453125 0.421875 C 1.546875 0.328125 1.59375 0.191406 1.59375 0.015625 L 1.59375 -0.421875 C 1.539062 -0.304688 1.457031 -0.210938 1.34375 -0.140625 C 1.238281 -0.078125 1.117188 -0.046875 0.984375 -0.046875 C 0.816406 -0.046875 0.671875 -0.0820312 0.546875 -0.15625 C 0.429688 -0.238281 0.335938 -0.347656 0.265625 -0.484375 C 0.203125 -0.617188 0.171875 -0.773438 0.171875 -0.953125 C 0.171875 -1.128906 0.203125 -1.285156 0.265625 -1.421875 C 0.335938 -1.554688 0.429688 -1.660156 0.546875 -1.734375 C 0.671875 -1.804688 0.816406 -1.84375 0.984375 -1.84375 C 1.117188 -1.84375 1.238281 -1.8125 1.34375 -1.75 C 1.457031 -1.6875 1.539062 -1.597656 1.59375 -1.484375 L 1.59375 -1.796875 Z M 1.03125 -0.296875 C 1.207031 -0.296875 1.34375 -0.351562 1.4375 -0.46875 C 1.539062 -0.582031 1.59375 -0.742188 1.59375 -0.953125 C 1.59375 -1.148438 1.539062 -1.304688 1.4375 -1.421875 C 1.34375 -1.535156 1.207031 -1.59375 1.03125 -1.59375 C 0.851562 -1.59375 0.710938 -1.535156 0.609375 -1.421875 C 0.515625 -1.304688 0.46875 -1.148438 0.46875 -0.953125 C 0.46875 -0.742188 0.515625 -0.582031 0.609375 -0.46875 C 0.710938 -0.351562 0.851562 -0.296875 1.03125 -0.296875 Z M 1.03125 -0.296875 "/></g></g></g><g fill="#000000" fill-opacity="1"><g transform="translate(85.542568, 22.790757)"><g/></g></g><g fill="#000000" fill-opacity="1"><g transform="translate(86.475405, 22.790757)"><g><path d="M 2.28125 -1.84375 C 2.675781 -1.84375 2.875 -1.601562 2.875 -1.125 L 2.875 0 L 2.578125 0 L 2.578125 -1.109375 C 2.578125 -1.285156 2.546875 -1.410156 2.484375 -1.484375 C 2.429688 -1.554688 2.34375 -1.59375 2.21875 -1.59375 C 2.0625 -1.59375 1.9375 -1.539062 1.84375 -1.4375 C 1.757812 -1.34375 1.71875 -1.207031 1.71875 -1.03125 L 1.71875 0 L 1.4375 0 L 1.4375 -1.109375 C 1.4375 -1.273438 1.40625 -1.394531 1.34375 -1.46875 C 1.28125 -1.550781 1.1875 -1.59375 1.0625 -1.59375 C 0.90625 -1.59375 0.78125 -1.539062 0.6875 -1.4375 C 0.601562 -1.34375 0.5625 -1.207031 0.5625 -1.03125 L 0.5625 0 L 0.28125 0 L 0.28125 -1.296875 C 0.28125 -1.484375 0.269531 -1.648438 0.25 -1.796875 L 0.53125 -1.796875 L 0.546875 -1.484375 C 0.597656 -1.597656 0.671875 -1.6875 0.765625 -1.75 C 0.867188 -1.8125 0.988281 -1.84375 1.125 -1.84375 C 1.269531 -1.84375 1.382812 -1.8125 1.46875 -1.75 C 1.5625 -1.695312 1.628906 -1.609375 1.671875 -1.484375 C 1.722656 -1.597656 1.800781 -1.6875 1.90625 -1.75 C 2.019531 -1.8125 2.144531 -1.84375 2.28125 -1.84375 Z M 2.28125 -1.84375 "/></g></g></g><g fill="#000000" fill-opacity="1"><g transform="translate(89.617033, 22.790757)"><g><path d="M 1.015625 0.03125 C 0.847656 0.03125 0.703125 -0.00390625 0.578125 -0.078125 C 0.453125 -0.160156 0.351562 -0.269531 0.28125 -0.40625 C 0.207031 -0.550781 0.171875 -0.71875 0.171875 -0.90625 C 0.171875 -1.09375 0.207031 -1.253906 0.28125 -1.390625 C 0.351562 -1.535156 0.453125 -1.644531 0.578125 -1.71875 C 0.703125 -1.800781 0.847656 -1.84375 1.015625 -1.84375 C 1.191406 -1.84375 1.34375 -1.800781 1.46875 -1.71875 C 1.59375 -1.644531 1.691406 -1.535156 1.765625 -1.390625 C 1.835938 -1.253906 1.875 -1.09375 1.875 -0.90625 C 1.875 -0.71875 1.835938 -0.550781 1.765625 -0.40625 C 1.691406 -0.269531 1.59375 -0.160156 1.46875 -0.078125 C 1.34375 -0.00390625 1.191406 0.03125 1.015625 0.03125 Z M 1.015625 -0.21875 C 1.203125 -0.21875 1.34375 -0.273438 1.4375 -0.390625 C 1.53125 -0.503906 1.578125 -0.675781 1.578125 -0.90625 C 1.578125 -1.125 1.523438 -1.289062 1.421875 -1.40625 C 1.328125 -1.53125 1.191406 -1.59375 1.015625 -1.59375 C 0.847656 -1.59375 0.710938 -1.53125 0.609375 -1.40625 C 0.515625 -1.289062 0.46875 -1.125 0.46875 -0.90625 C 0.46875 -0.675781 0.515625 -0.503906 0.609375 -0.390625 C 0.703125 -0.273438 0.835938 -0.21875 1.015625 -0.21875 Z M 0.4375 -2.625 C 0.4375 -2.726562 0.460938 -2.8125 0.515625 -2.875 C 0.578125 -2.945312 0.65625 -2.984375 0.75 -2.984375 C 0.800781 -2.984375 0.847656 -2.972656 0.890625 -2.953125 C 0.941406 -2.941406 1 -2.921875 1.0625 -2.890625 C 1.09375 -2.867188 1.125 -2.851562 1.15625 -2.84375 C 1.195312 -2.832031 1.234375 -2.828125 1.265625 -2.828125 C 1.316406 -2.828125 1.359375 -2.84375 1.390625 -2.875 C 1.421875 -2.90625 1.4375 -2.941406 1.4375 -2.984375 L 1.59375 -2.984375 C 1.59375 -2.878906 1.5625 -2.789062 1.5 -2.71875 C 1.445312 -2.65625 1.375 -2.625 1.28125 -2.625 C 1.226562 -2.625 1.175781 -2.628906 1.125 -2.640625 C 1.082031 -2.660156 1.03125 -2.6875 0.96875 -2.71875 C 0.9375 -2.738281 0.898438 -2.753906 0.859375 -2.765625 C 0.828125 -2.773438 0.796875 -2.78125 0.765625 -2.78125 C 0.710938 -2.78125 0.671875 -2.765625 0.640625 -2.734375 C 0.609375 -2.703125 0.59375 -2.664062 0.59375 -2.625 Z M 0.75 -2.046875 L 0.484375 -2.046875 L 0.921875 -2.5625 L 1.109375 -2.5625 L 1.546875 -2.046875 L 1.28125 -2.046875 L 1.015625 -2.390625 Z M 0.75 -2.046875 "/></g></g></g><g fill="#000000" fill-opacity="1"><g transform="translate(91.661413, 22.790757)"><g><path d="M 0.28125 0 L 0.28125 -1.796875 L 0.5625 -1.796875 L 0.5625 0 Z M 0.25 -2.5625 L 0.59375 -2.5625 L 0.59375 -2.234375 L 0.25 -2.234375 Z M 0.25 -2.5625 "/></g></g></g><g fill="#000000" fill-opacity="1"><g transform="translate(92.512046, 22.790757)"><g/></g></g><g fill="#000000" fill-opacity="1"><g transform="translate(93.444883, 22.790757)"><g><path d="M 1.171875 -1.84375 C 1.609375 -1.84375 1.828125 -1.601562 1.828125 -1.125 L 1.828125 0 L 1.53125 0 L 1.53125 -1.109375 C 1.53125 -1.273438 1.492188 -1.394531 1.421875 -1.46875 C 1.359375 -1.550781 1.257812 -1.59375 1.125 -1.59375 C 0.957031 -1.59375 0.820312 -1.539062 0.71875 -1.4375 C 0.613281 -1.34375 0.5625 -1.207031 0.5625 -1.03125 L 0.5625 0 L 0.28125 0 L 0.28125 -1.296875 C 0.28125 -1.484375 0.269531 -1.648438 0.25 -1.796875 L 0.53125 -1.796875 L 0.546875 -1.484375 C 0.609375 -1.597656 0.691406 -1.6875 0.796875 -1.75 C 0.910156 -1.8125 1.035156 -1.84375 1.171875 -1.84375 Z M 1.171875 -1.84375 "/></g></g></g><g fill="#000000" fill-opacity="1"><g transform="translate(95.535727, 22.790757)"><g><path d="M 1.875 -1.796875 L 1.875 -0.015625 C 1.875 0.253906 1.804688 0.457031 1.671875 0.59375 C 1.535156 0.726562 1.332031 0.796875 1.0625 0.796875 C 0.789062 0.796875 0.554688 0.734375 0.359375 0.609375 L 0.40625 0.375 C 0.519531 0.4375 0.628906 0.484375 0.734375 0.515625 C 0.835938 0.546875 0.945312 0.5625 1.0625 0.5625 C 1.238281 0.5625 1.367188 0.515625 1.453125 0.421875 C 1.546875 0.328125 1.59375 0.191406 1.59375 0.015625 L 1.59375 -0.421875 C 1.539062 -0.304688 1.457031 -0.210938 1.34375 -0.140625 C 1.238281 -0.078125 1.117188 -0.046875 0.984375 -0.046875 C 0.816406 -0.046875 0.671875 -0.0820312 0.546875 -0.15625 C 0.429688 -0.238281 0.335938 -0.347656 0.265625 -0.484375 C 0.203125 -0.617188 0.171875 -0.773438 0.171875 -0.953125 C 0.171875 -1.128906 0.203125 -1.285156 0.265625 -1.421875 C 0.335938 -1.554688 0.429688 -1.660156 0.546875 -1.734375 C 0.671875 -1.804688 0.816406 -1.84375 0.984375 -1.84375 C 1.117188 -1.84375 1.238281 -1.8125 1.34375 -1.75 C 1.457031 -1.6875 1.539062 -1.597656 1.59375 -1.484375 L 1.59375 -1.796875 Z M 1.03125 -0.296875 C 1.207031 -0.296875 1.34375 -0.351562 1.4375 -0.46875 C 1.539062 -0.582031 1.59375 -0.742188 1.59375 -0.953125 C 1.59375 -1.148438 1.539062 -1.304688 1.4375 -1.421875 C 1.34375 -1.535156 1.207031 -1.59375 1.03125 -1.59375 C 0.851562 -1.59375 0.710938 -1.535156 0.609375 -1.421875 C 0.515625 -1.304688 0.46875 -1.148438 0.46875 -0.953125 C 0.46875 -0.742188 0.515625 -0.582031 0.609375 -0.46875 C 0.710938 -0.351562 0.851562 -0.296875 1.03125 -0.296875 Z M 1.03125 -0.296875 "/></g></g></g><g fill="#000000" fill-opacity="1"><g transform="translate(97.694477, 22.790757)"><g><path d="M 1.859375 -1.796875 L 1.859375 0 L 1.578125 0 L 1.578125 -0.328125 C 1.523438 -0.210938 1.445312 -0.125 1.34375 -0.0625 C 1.238281 0 1.113281 0.03125 0.96875 0.03125 C 0.8125 0.03125 0.671875 -0.00390625 0.546875 -0.078125 C 0.429688 -0.160156 0.335938 -0.269531 0.265625 -0.40625 C 0.203125 -0.550781 0.171875 -0.71875 0.171875 -0.90625 C 0.171875 -1.09375 0.203125 -1.253906 0.265625 -1.390625 C 0.335938 -1.535156 0.429688 -1.644531 0.546875 -1.71875 C 0.671875 -1.800781 0.8125 -1.84375 0.96875 -1.84375 C 1.113281 -1.84375 1.238281 -1.8125 1.34375 -1.75 C 1.445312 -1.6875 1.523438 -1.597656 1.578125 -1.484375 L 1.578125 -1.796875 Z M 1.03125 -0.21875 C 1.207031 -0.21875 1.34375 -0.273438 1.4375 -0.390625 C 1.53125 -0.515625 1.578125 -0.6875 1.578125 -0.90625 C 1.578125 -1.125 1.53125 -1.289062 1.4375 -1.40625 C 1.34375 -1.53125 1.207031 -1.59375 1.03125 -1.59375 C 0.851562 -1.59375 0.710938 -1.53125 0.609375 -1.40625 C 0.515625 -1.289062 0.46875 -1.125 0.46875 -0.90625 C 0.46875 -0.6875 0.515625 -0.515625 0.609375 -0.390625 C 0.710938 -0.273438 0.851562 -0.21875 1.03125 -0.21875 Z M 0.96875 -2.046875 L 0.484375 -2.765625 L 0.828125 -2.765625 L 1.1875 -2.046875 Z M 0.96875 -2.046875 "/></g></g></g><g fill="#000000" fill-opacity="1"><g transform="translate(99.838935, 22.790757)"><g><path d="M 1.859375 -1.796875 L 1.015625 0.171875 C 0.929688 0.367188 0.820312 0.515625 0.6875 0.609375 C 0.550781 0.710938 0.382812 0.78125 0.1875 0.8125 L 0.125 0.59375 C 0.300781 0.550781 0.429688 0.5 0.515625 0.4375 C 0.597656 0.375 0.671875 0.273438 0.734375 0.140625 L 0.8125 -0.015625 L 0.046875 -1.796875 L 0.34375 -1.796875 L 0.953125 -0.3125 L 1.578125 -1.796875 Z M 1.859375 -1.796875 "/></g></g></g></svg>