<svg xmlns="http://www.w3.org/2000/svg" xmlns:xlink="http://www.w3.org/1999/xlink" width="500" zoomAndPan="magnify" viewBox="0 0 375 374.999991" height="500" preserveAspectRatio="xMidYMid meet" version="1.0"><defs><g/><clipPath id="66a655c97a"><path d="M 187.5 0 C 83.945312 0 0 83.945312 0 187.5 C 0 291.054688 83.945312 375 187.5 375 C 291.054688 375 375 291.054688 375 187.5 C 375 83.945312 291.054688 0 187.5 0 Z M 187.5 0 " clip-rule="nonzero"/></clipPath></defs><g clip-path="url(#66a655c97a)"><rect x="-37.5" width="450" fill="#ffb6b9" y="-37.499999" height="449.999989" fill-opacity="1"/></g><g fill="#000000" fill-opacity="1"><g transform="translate(93.081963, 201.933858)"><g><path d="M 70.53125 -7.765625 C 65.363281 -6.460938 60.28125 -5.519531 55.28125 -4.9375 C 50.289062 -4.351562 44.675781 -4.0625 38.4375 -4.0625 C 38.4375 -20.519531 37.96875 -38.300781 37.03125 -57.40625 C 36.09375 -76.507812 34.800781 -92.992188 33.15625 -106.859375 C 31.625 -106.742188 28.679688 -106.476562 24.328125 -106.0625 C 19.984375 -105.65625 14.164062 -105.097656 6.875 -104.390625 C 5.34375 -108.503906 4.164062 -112.734375 3.34375 -117.078125 C 2.519531 -121.429688 2.109375 -125.664062 2.109375 -129.78125 C 18.222656 -133.425781 33.597656 -136.039062 48.234375 -137.625 C 62.867188 -139.21875 79.414062 -140.015625 97.875 -140.015625 C 98.457031 -138.015625 98.894531 -135.75 99.1875 -133.21875 C 99.488281 -130.695312 99.640625 -127.90625 99.640625 -124.84375 C 99.640625 -122.726562 99.488281 -120.4375 99.1875 -117.96875 C 98.894531 -115.5 98.394531 -112.796875 97.6875 -109.859375 C 93.226562 -109.859375 88.878906 -109.828125 84.640625 -109.765625 C 80.410156 -109.710938 76.238281 -109.566406 72.125 -109.328125 C 72.59375 -102.046875 72.941406 -94.460938 73.171875 -86.578125 C 73.410156 -78.703125 73.53125 -70.59375 73.53125 -62.25 C 73.53125 -54.488281 73.296875 -46.109375 72.828125 -37.109375 C 72.359375 -28.117188 71.59375 -18.335938 70.53125 -7.765625 Z M 70.53125 -7.765625 "/></g></g></g><g fill="#000000" fill-opacity="1"><g transform="translate(188.061585, 201.933858)"><g><path d="M 90.8125 -14.28125 C 91.757812 -11.226562 92.671875 -6.910156 93.546875 -1.328125 C 94.429688 4.253906 94.875 8.988281 94.875 12.875 C 83.238281 12.875 72.097656 13.285156 61.453125 14.109375 C 50.816406 14.929688 37.5625 16.457031 21.6875 18.6875 C 18.863281 1.175781 16.363281 -21.007812 14.1875 -47.875 C 12.019531 -74.738281 10.9375 -97.101562 10.9375 -114.96875 C 16.34375 -116.382812 21.660156 -117.441406 26.890625 -118.140625 C 32.117188 -118.847656 37.320312 -119.203125 42.5 -119.203125 C 44.03125 -119.203125 45.53125 -119.171875 47 -119.109375 C 48.46875 -119.054688 50.023438 -118.910156 51.671875 -118.671875 C 50.734375 -112.796875 49.96875 -104.945312 49.375 -95.125 C 48.789062 -85.3125 48.5 -74.882812 48.5 -63.84375 C 48.5 -47.851562 48.703125 -35.976562 49.109375 -28.21875 C 49.523438 -20.457031 50.203125 -13.8125 51.140625 -8.28125 C 57.722656 -10.164062 64.507812 -11.632812 71.5 -12.6875 C 78.5 -13.75 84.9375 -14.28125 90.8125 -14.28125 Z M 90.8125 -14.28125 "/></g></g></g><g fill="#000000" fill-opacity="1"><g transform="translate(64.782415, 283.62998)"><g><path d="M 22.03125 -11.84375 C 23.40625 -11.976562 24.859375 -11.898438 26.390625 -11.609375 C 27.921875 -11.328125 29.019531 -10.9375 29.6875 -10.4375 C 29.414062 -6.570312 28.007812 -3.570312 25.46875 -1.4375 C 22.9375 0.695312 19.472656 1.765625 15.078125 1.765625 C 10.910156 1.765625 7.648438 0.472656 5.296875 -2.109375 C 2.941406 -4.703125 1.765625 -8.382812 1.765625 -13.15625 C 1.765625 -19.269531 3.441406 -24.425781 6.796875 -28.625 C 10.160156 -32.832031 14.394531 -34.9375 19.5 -34.9375 C 22.625 -34.9375 25.144531 -33.96875 27.0625 -32.03125 C 28.976562 -30.101562 30.085938 -27.40625 30.390625 -23.9375 C 28.609375 -23.164062 27.078125 -22.660156 25.796875 -22.421875 C 24.523438 -22.191406 22.914062 -22.078125 20.96875 -22.078125 C 20.96875 -24.265625 20.691406 -25.941406 20.140625 -27.109375 C 19.585938 -28.285156 18.804688 -28.875 17.796875 -28.875 C 16.378906 -28.875 15.203125 -27.582031 14.265625 -25 C 13.328125 -22.414062 12.859375 -19.289062 12.859375 -15.625 C 12.859375 -12.0625 13.285156 -9.332031 14.140625 -7.4375 C 14.992188 -5.539062 16.210938 -4.59375 17.796875 -4.59375 C 19.410156 -4.59375 20.585938 -5.226562 21.328125 -6.5 C 22.066406 -7.78125 22.300781 -9.5625 22.03125 -11.84375 Z M 22.03125 -11.84375 "/></g></g></g><g fill="#000000" fill-opacity="1"><g transform="translate(95.932126, 283.62998)"><g><path d="M 1.265625 -11.75 C 1.265625 -16.488281 2.628906 -20.359375 5.359375 -23.359375 C 8.097656 -26.367188 11.65625 -27.875 16.03125 -27.875 C 19.320312 -27.875 21.875 -26.945312 23.6875 -25.09375 C 25.5 -23.25 26.40625 -20.628906 26.40625 -17.234375 C 26.40625 -15.117188 26.078125 -12.96875 25.421875 -10.78125 C 24.773438 -8.601562 23.863281 -6.707031 22.6875 -5.09375 C 21.34375 -3.238281 19.738281 -1.84375 17.875 -0.90625 C 16.007812 0.03125 13.898438 0.5 11.546875 0.5 C 8.285156 0.5 5.753906 -0.597656 3.953125 -2.796875 C 2.160156 -4.992188 1.265625 -7.976562 1.265625 -11.75 Z M 16.375 -14.46875 C 16.375 -17.082031 16.171875 -19.003906 15.765625 -20.234375 C 15.367188 -21.460938 14.734375 -22.078125 13.859375 -22.078125 C 13.054688 -22.078125 12.394531 -21.253906 11.875 -19.609375 C 11.351562 -17.960938 11.09375 -15.8125 11.09375 -13.15625 C 11.09375 -10.96875 11.328125 -9.109375 11.796875 -7.578125 C 12.265625 -6.054688 12.898438 -5.296875 13.703125 -5.296875 C 14.546875 -5.296875 15.203125 -6.144531 15.671875 -7.84375 C 16.140625 -9.539062 16.375 -11.75 16.375 -14.46875 Z M 16.375 -14.46875 "/></g></g></g><g fill="#000000" fill-opacity="1"><g transform="translate(123.855975, 283.62998)"><g><path d="M 41.4375 -19.65625 C 41.4375 -16.46875 41.125 -12.742188 40.5 -8.484375 C 39.875 -4.234375 39.175781 -0.679688 38.40625 2.171875 C 36.457031 2.171875 34.660156 2.082031 33.015625 1.90625 C 31.367188 1.738281 29.789062 1.488281 28.28125 1.15625 C 29.457031 -4.15625 30.28125 -8.390625 30.75 -11.546875 C 31.21875 -14.703125 31.453125 -17.304688 31.453125 -19.359375 C 31.453125 -20.296875 31.316406 -20.988281 31.046875 -21.4375 C 30.773438 -21.894531 30.359375 -22.125 29.796875 -22.125 C 29.253906 -22.125 28.710938 -21.738281 28.171875 -20.96875 C 27.640625 -20.195312 27.15625 -19.101562 26.71875 -17.6875 L 26.71875 -17.296875 C 26.71875 -14.671875 26.5 -11.648438 26.0625 -8.234375 C 25.625 -4.828125 25.171875 -2.25 24.703125 -0.5 C 23.421875 -0.5 22.023438 -0.570312 20.515625 -0.71875 C 19.003906 -0.875 17.273438 -1.125 15.328125 -1.46875 C 15.960938 -5.226562 16.421875 -8.285156 16.703125 -10.640625 C 16.992188 -12.992188 17.140625 -14.925781 17.140625 -16.4375 C 17.140625 -17.375 17.003906 -18.066406 16.734375 -18.515625 C 16.460938 -18.972656 16.039062 -19.203125 15.46875 -19.203125 C 14.863281 -19.203125 14.273438 -18.816406 13.703125 -18.046875 C 13.140625 -17.273438 12.65625 -16.195312 12.25 -14.8125 C 12.21875 -12.125 12.191406 -10.082031 12.171875 -8.6875 C 12.148438 -7.300781 12.140625 -6.066406 12.140625 -4.984375 C 12.140625 -4.753906 12.128906 -4.207031 12.109375 -3.34375 C 12.097656 -2.488281 12.109375 -1.742188 12.140625 -1.109375 C 11.203125 -0.835938 9.925781 -0.597656 8.3125 -0.390625 C 6.695312 -0.191406 5.203125 -0.09375 3.828125 -0.09375 C 3.191406 -4.800781 2.644531 -9.71875 2.1875 -14.84375 C 1.738281 -19.96875 1.515625 -24.160156 1.515625 -27.421875 C 2.285156 -27.828125 3.375 -28.144531 4.78125 -28.375 C 6.195312 -28.613281 7.644531 -28.734375 9.125 -28.734375 C 9.789062 -28.734375 10.441406 -28.695312 11.078125 -28.625 C 11.722656 -28.5625 12.363281 -28.460938 13 -28.328125 C 12.90625 -27.453125 12.804688 -26.476562 12.703125 -25.40625 C 12.597656 -24.332031 12.53125 -23.238281 12.5 -22.125 C 13.476562 -23.675781 14.640625 -24.84375 15.984375 -25.625 C 17.328125 -26.414062 18.820312 -26.8125 20.46875 -26.8125 C 21.601562 -26.8125 22.59375 -26.554688 23.4375 -26.046875 C 24.28125 -25.546875 24.953125 -24.8125 25.453125 -23.84375 C 26.523438 -25.757812 27.851562 -27.21875 29.4375 -28.21875 C 31.019531 -29.226562 32.800781 -29.734375 34.78125 -29.734375 C 36.96875 -29.734375 38.625 -28.882812 39.75 -27.1875 C 40.875 -25.5 41.4375 -22.988281 41.4375 -19.65625 Z M 41.4375 -19.65625 "/></g></g></g><g fill="#000000" fill-opacity="1"><g transform="translate(167.808383, 283.62998)"><g><path d="M 12.203125 -17.4375 C 12.597656 -17.34375 12.988281 -17.269531 13.375 -17.21875 C 13.769531 -17.164062 14.097656 -17.140625 14.359375 -17.140625 C 14.628906 -17.140625 14.941406 -17.144531 15.296875 -17.15625 C 15.648438 -17.175781 15.894531 -17.203125 16.03125 -17.234375 C 16.226562 -18.046875 16.382812 -18.800781 16.5 -19.5 C 16.625 -20.207031 16.6875 -20.847656 16.6875 -21.421875 C 16.6875 -22.128906 16.59375 -22.648438 16.40625 -22.984375 C 16.21875 -23.316406 15.941406 -23.484375 15.578125 -23.484375 C 14.898438 -23.484375 14.257812 -22.9375 13.65625 -21.84375 C 13.050781 -20.757812 12.566406 -19.289062 12.203125 -17.4375 Z M 18.296875 -9.671875 C 19.578125 -9.441406 20.878906 -8.984375 22.203125 -8.296875 C 23.523438 -7.609375 24.609375 -6.828125 25.453125 -5.953125 C 25.179688 -5.078125 24.554688 -4.132812 23.578125 -3.125 C 22.609375 -2.113281 21.453125 -1.273438 20.109375 -0.609375 C 19.035156 -0.0664062 17.867188 0.34375 16.609375 0.625 C 15.347656 0.914062 14.03125 1.0625 12.65625 1.0625 C 9.15625 1.0625 6.421875 0.046875 4.453125 -1.984375 C 2.492188 -4.023438 1.515625 -6.789062 1.515625 -10.28125 C 1.515625 -12.46875 1.859375 -14.609375 2.546875 -16.703125 C 3.234375 -18.804688 4.21875 -20.71875 5.5 -22.4375 C 6.9375 -24.34375 8.597656 -25.832031 10.484375 -26.90625 C 12.367188 -27.988281 14.300781 -28.53125 16.28125 -28.53125 C 19.101562 -28.53125 21.351562 -27.816406 23.03125 -26.390625 C 24.71875 -24.960938 25.5625 -23.054688 25.5625 -20.671875 C 25.5625 -19.585938 25.453125 -18.398438 25.234375 -17.109375 C 25.015625 -15.816406 24.734375 -14.703125 24.390625 -13.765625 C 23.347656 -13.253906 22.0625 -12.875 20.53125 -12.625 C 19.007812 -12.375 17.191406 -12.25 15.078125 -12.25 C 14.472656 -12.25 13.875 -12.28125 13.28125 -12.34375 C 12.695312 -12.414062 12.117188 -12.5 11.546875 -12.59375 C 11.515625 -12.394531 11.5 -12.171875 11.5 -11.921875 C 11.5 -11.671875 11.5 -11.289062 11.5 -10.78125 C 11.5 -8.769531 11.757812 -7.222656 12.28125 -6.140625 C 12.800781 -5.066406 13.546875 -4.53125 14.515625 -4.53125 C 15.148438 -4.53125 15.835938 -5.050781 16.578125 -6.09375 C 17.316406 -7.132812 17.890625 -8.328125 18.296875 -9.671875 Z M 18.296875 -9.671875 "/></g></g></g><g fill="#000000" fill-opacity="1"><g transform="translate(195.278591, 283.62998)"><g><path d="M 15.46875 -16.9375 C 18.5 -15.125 20.523438 -13.492188 21.546875 -12.046875 C 22.578125 -10.597656 23.09375 -8.984375 23.09375 -7.203125 C 23.09375 -4.484375 21.914062 -2.222656 19.5625 -0.421875 C 17.207031 1.367188 14.332031 2.265625 10.9375 2.265625 C 8.050781 2.265625 5.628906 1.394531 3.671875 -0.34375 C 1.722656 -2.09375 0.75 -4.160156 0.75 -6.546875 C 1.53125 -6.921875 2.554688 -7.234375 3.828125 -7.484375 C 5.109375 -7.734375 6.253906 -7.859375 7.265625 -7.859375 C 7.265625 -6.378906 7.570312 -5.1875 8.1875 -4.28125 C 8.8125 -3.375 9.695312 -2.921875 10.84375 -2.921875 C 11.675781 -2.921875 12.3125 -3.101562 12.75 -3.46875 C 13.1875 -3.84375 13.40625 -4.382812 13.40625 -5.09375 C 13.40625 -5.800781 13.128906 -6.488281 12.578125 -7.15625 C 12.023438 -7.832031 10.789062 -8.757812 8.875 -9.9375 C 6.019531 -11.707031 4.117188 -13.273438 3.171875 -14.640625 C 2.234375 -16.003906 1.765625 -17.539062 1.765625 -19.25 C 1.765625 -21.9375 2.796875 -24.160156 4.859375 -25.921875 C 6.929688 -27.691406 9.578125 -28.578125 12.796875 -28.578125 C 15.992188 -28.578125 18.59375 -27.867188 20.59375 -26.453125 C 22.59375 -25.046875 23.859375 -23.066406 24.390625 -20.515625 C 23.421875 -19.878906 22.3125 -19.382812 21.0625 -19.03125 C 19.820312 -18.675781 18.195312 -18.429688 16.1875 -18.296875 C 15.945312 -19.878906 15.582031 -21.03125 15.09375 -21.75 C 14.601562 -22.46875 13.941406 -22.828125 13.109375 -22.828125 C 12.535156 -22.828125 12.085938 -22.660156 11.765625 -22.328125 C 11.453125 -21.992188 11.296875 -21.539062 11.296875 -20.96875 C 11.296875 -20.425781 11.546875 -19.878906 12.046875 -19.328125 C 12.546875 -18.773438 13.6875 -17.976562 15.46875 -16.9375 Z M 15.46875 -16.9375 "/></g></g></g><g fill="#000000" fill-opacity="1"><g transform="translate(220.430218, 283.62998)"><g><path d="M 15.578125 -11.6875 C 16.722656 -11.5625 17.890625 -11.257812 19.078125 -10.78125 C 20.273438 -10.3125 21.34375 -9.707031 22.28125 -8.96875 C 22.28125 -6.550781 21.523438 -4.5 20.015625 -2.8125 C 18.503906 -1.132812 16.398438 -0.296875 13.703125 -0.296875 C 10.316406 -0.296875 7.691406 -1.5 5.828125 -3.90625 C 3.960938 -6.3125 3.03125 -9.796875 3.03125 -14.359375 C 3.03125 -15.441406 3.046875 -16.5625 3.078125 -17.71875 C 3.109375 -18.875 3.175781 -20.09375 3.28125 -21.375 C 2.601562 -21.476562 1.960938 -21.59375 1.359375 -21.71875 C 0.753906 -21.851562 0.21875 -21.988281 -0.25 -22.125 C -0.25 -23.195312 -0.148438 -24.222656 0.046875 -25.203125 C 0.253906 -26.179688 0.539062 -26.9375 0.90625 -27.46875 C 1.238281 -27.363281 1.648438 -27.253906 2.140625 -27.140625 C 2.628906 -27.023438 3.226562 -26.914062 3.9375 -26.8125 C 4.132812 -28.1875 4.34375 -29.382812 4.5625 -30.40625 C 4.78125 -31.4375 5.007812 -32.359375 5.25 -33.171875 C 7.257812 -33.171875 9.210938 -33.039062 11.109375 -32.78125 C 13.015625 -32.53125 14.554688 -32.207031 15.734375 -31.8125 C 15.523438 -31 15.300781 -30.097656 15.0625 -29.109375 C 14.832031 -28.117188 14.632812 -27.101562 14.46875 -26.0625 C 15.875 -26.03125 17.222656 -26.035156 18.515625 -26.078125 C 19.816406 -26.128906 20.953125 -26.222656 21.921875 -26.359375 C 21.921875 -25.585938 21.835938 -24.710938 21.671875 -23.734375 C 21.503906 -22.765625 21.269531 -21.875 20.96875 -21.0625 C 20.125 -20.894531 19.046875 -20.769531 17.734375 -20.6875 C 16.429688 -20.601562 15.054688 -20.578125 13.609375 -20.609375 C 13.441406 -19.335938 13.304688 -18.0625 13.203125 -16.78125 C 13.109375 -15.507812 13.0625 -14.300781 13.0625 -13.15625 C 13.0625 -10.332031 13.160156 -8.425781 13.359375 -7.4375 C 13.554688 -6.445312 13.890625 -5.953125 14.359375 -5.953125 C 14.660156 -5.953125 14.929688 -6.460938 15.171875 -7.484375 C 15.410156 -8.503906 15.546875 -9.90625 15.578125 -11.6875 Z M 15.578125 -11.6875 "/></g></g></g><g fill="#000000" fill-opacity="1"><g transform="translate(243.616089, 283.62998)"><g><path d="M 10.21875 -38.109375 C 11.226562 -38.109375 12.171875 -38.023438 13.046875 -37.859375 C 13.921875 -37.691406 14.660156 -37.457031 15.265625 -37.15625 C 14.960938 -36.445312 14.625 -35.410156 14.25 -34.046875 C 13.882812 -32.691406 13.617188 -31.492188 13.453125 -30.453125 C 12.304688 -30.242188 11.023438 -30.097656 9.609375 -30.015625 C 8.203125 -29.929688 6.609375 -29.90625 4.828125 -29.9375 C 4.597656 -30.675781 4.421875 -31.414062 4.296875 -32.15625 C 4.179688 -32.894531 4.125 -33.617188 4.125 -34.328125 C 4.125 -34.867188 4.148438 -35.335938 4.203125 -35.734375 C 4.253906 -36.140625 4.328125 -36.507812 4.421875 -36.84375 C 5.203125 -37.28125 6.070312 -37.597656 7.03125 -37.796875 C 7.988281 -38.003906 9.050781 -38.109375 10.21875 -38.109375 Z M 3.21875 -25.40625 C 4.125 -25.945312 5.179688 -26.347656 6.390625 -26.609375 C 7.597656 -26.878906 8.910156 -27.015625 10.328125 -27.015625 C 10.992188 -27.015625 11.65625 -26.976562 12.3125 -26.90625 C 12.96875 -26.84375 13.597656 -26.765625 14.203125 -26.671875 C 13.460938 -24.484375 12.816406 -21.003906 12.265625 -16.234375 C 11.710938 -11.460938 11.332031 -6.234375 11.125 -0.546875 C 10.425781 -0.179688 9.53125 0.109375 8.4375 0.328125 C 7.34375 0.546875 6.207031 0.65625 5.03125 0.65625 C 4.53125 0.65625 4.09375 0.632812 3.71875 0.59375 C 3.351562 0.5625 3.035156 0.515625 2.765625 0.453125 C 2.265625 -4.347656 2.046875 -8.957031 2.109375 -13.375 C 2.171875 -17.800781 2.539062 -21.8125 3.21875 -25.40625 Z M 3.21875 -25.40625 "/></g></g></g><g fill="#000000" fill-opacity="1"><g transform="translate(258.938936, 283.62998)"><g><path d="M 25.75 -18.75 C 24.675781 -18.25 23.441406 -17.867188 22.046875 -17.609375 C 20.648438 -17.359375 18.976562 -17.234375 17.03125 -17.234375 C 17.03125 -19.015625 16.867188 -20.332031 16.546875 -21.1875 C 16.234375 -22.050781 15.742188 -22.484375 15.078125 -22.484375 C 14.097656 -22.484375 13.238281 -21.265625 12.5 -18.828125 C 11.757812 -16.390625 11.390625 -13.640625 11.390625 -10.578125 C 11.390625 -8.628906 11.640625 -7.097656 12.140625 -5.984375 C 12.648438 -4.878906 13.359375 -4.328125 14.265625 -4.328125 C 15.066406 -4.328125 15.890625 -4.65625 16.734375 -5.3125 C 17.578125 -5.96875 18.671875 -7.269531 20.015625 -9.21875 C 20.984375 -9.050781 21.9375 -8.648438 22.875 -8.015625 C 23.820312 -7.378906 24.597656 -6.625 25.203125 -5.75 C 24.929688 -4.875 24.304688 -3.929688 23.328125 -2.921875 C 22.359375 -1.910156 21.203125 -1.070312 19.859375 -0.40625 C 18.785156 0.132812 17.617188 0.546875 16.359375 0.828125 C 15.097656 1.117188 13.78125 1.265625 12.40625 1.265625 C 8.90625 1.265625 6.171875 0.222656 4.203125 -1.859375 C 2.242188 -3.941406 1.265625 -6.734375 1.265625 -10.234375 C 1.265625 -12.285156 1.597656 -14.332031 2.265625 -16.375 C 2.941406 -18.425781 3.898438 -20.242188 5.140625 -21.828125 C 6.484375 -23.640625 8.0625 -25.015625 9.875 -25.953125 C 11.6875 -26.898438 13.65625 -27.375 15.78125 -27.375 C 18.9375 -27.375 21.382812 -26.609375 23.125 -25.078125 C 24.875 -23.546875 25.75 -21.4375 25.75 -18.75 Z M 25.75 -18.75 "/></g></g></g><g fill="#000000" fill-opacity="1"><g transform="translate(285.199477, 283.62998)"><g><path d="M 15.46875 -16.9375 C 18.5 -15.125 20.523438 -13.492188 21.546875 -12.046875 C 22.578125 -10.597656 23.09375 -8.984375 23.09375 -7.203125 C 23.09375 -4.484375 21.914062 -2.222656 19.5625 -0.421875 C 17.207031 1.367188 14.332031 2.265625 10.9375 2.265625 C 8.050781 2.265625 5.628906 1.394531 3.671875 -0.34375 C 1.722656 -2.09375 0.75 -4.160156 0.75 -6.546875 C 1.53125 -6.921875 2.554688 -7.234375 3.828125 -7.484375 C 5.109375 -7.734375 6.253906 -7.859375 7.265625 -7.859375 C 7.265625 -6.378906 7.570312 -5.1875 8.1875 -4.28125 C 8.8125 -3.375 9.695312 -2.921875 10.84375 -2.921875 C 11.675781 -2.921875 12.3125 -3.101562 12.75 -3.46875 C 13.1875 -3.84375 13.40625 -4.382812 13.40625 -5.09375 C 13.40625 -5.800781 13.128906 -6.488281 12.578125 -7.15625 C 12.023438 -7.832031 10.789062 -8.757812 8.875 -9.9375 C 6.019531 -11.707031 4.117188 -13.273438 3.171875 -14.640625 C 2.234375 -16.003906 1.765625 -17.539062 1.765625 -19.25 C 1.765625 -21.9375 2.796875 -24.160156 4.859375 -25.921875 C 6.929688 -27.691406 9.578125 -28.578125 12.796875 -28.578125 C 15.992188 -28.578125 18.59375 -27.867188 20.59375 -26.453125 C 22.59375 -25.046875 23.859375 -23.066406 24.390625 -20.515625 C 23.421875 -19.878906 22.3125 -19.382812 21.0625 -19.03125 C 19.820312 -18.675781 18.195312 -18.429688 16.1875 -18.296875 C 15.945312 -19.878906 15.582031 -21.03125 15.09375 -21.75 C 14.601562 -22.46875 13.941406 -22.828125 13.109375 -22.828125 C 12.535156 -22.828125 12.085938 -22.660156 11.765625 -22.328125 C 11.453125 -21.992188 11.296875 -21.539062 11.296875 -20.96875 C 11.296875 -20.425781 11.546875 -19.878906 12.046875 -19.328125 C 12.546875 -18.773438 13.6875 -17.976562 15.46875 -16.9375 Z M 15.46875 -16.9375 "/></g></g></g></svg>